<svg width="167" height="52" viewBox="0 0 167 52" fill="none" xmlns="http://www.w3.org/2000/svg">
<path d="M161.2 52H5.2C2.34 52 0 49.66 0 46.8V5.2C0 2.34 2.34 0 5.2 0H161.2C164.06 0 166.4 2.34 166.4 5.2V46.8C166.4 49.66 164.06 52 161.2 52Z" fill="black"/>
<path d="M35.1002 25.7401C35.1002 21.7101 38.4803 19.7601 38.6103 19.6301C36.6603 16.9001 33.8003 16.5101 32.7603 16.3801C30.2903 16.1201 27.8202 17.8101 26.6502 17.8101C25.3502 17.8101 23.4002 16.3801 21.3202 16.3801C18.5902 16.3801 16.1203 17.9401 14.6903 20.4101C11.8303 25.3501 13.9103 32.6301 16.6403 36.6601C18.0703 38.6101 19.6303 40.8201 21.7103 40.6901C23.7903 40.5601 24.5703 39.3901 27.0403 39.3901C29.5103 39.3901 30.1602 40.6901 32.3702 40.6901C34.5802 40.6901 36.0103 38.7401 37.3103 36.7901C38.8703 34.5801 39.5202 32.3701 39.5202 32.2401C39.3902 32.1101 35.1002 30.5501 35.1002 25.7401Z" fill="white"/>
<path d="M31.0701 13.78C32.1101 12.35 32.8901 10.53 32.7601 8.58002C31.2001 8.71002 29.1201 9.62002 28.0801 11.05C27.0401 12.22 26.1301 14.17 26.3901 15.99C28.0801 16.12 29.9001 15.08 31.0701 13.78Z" fill="white"/>
<path d="M64.74 40.4305H61.88L60.32 35.4905H54.86L53.43 40.4305H50.7L56.16 23.6605H59.54L64.74 40.4305ZM59.8 33.4105L58.37 28.9905C58.24 28.6005 57.98 27.4305 57.46 25.8705C57.33 26.5205 57.07 27.6905 56.68 28.9905L55.25 33.4105H59.8Z" fill="white"/>
<path d="M78.65 34.3205C78.65 36.4005 78.13 37.9605 76.96 39.2605C75.92 40.3005 74.75 40.8205 73.19 40.8205C71.63 40.8205 70.46 40.3005 69.81 39.1305V45.5005H67.08V32.5005C67.08 31.2005 67.08 29.9005 66.95 28.4705H69.29L69.42 30.4205C70.33 28.9905 71.63 28.2105 73.45 28.2105C74.88 28.2105 76.05 28.7305 76.96 29.9005C78.13 30.9405 78.65 32.3705 78.65 34.3205ZM75.92 34.3205C75.92 33.1505 75.66 32.1105 75.14 31.4605C74.62 30.6805 73.84 30.2905 72.8 30.2905C72.15 30.2905 71.5 30.5505 70.98 30.9405C70.46 31.3305 70.07 31.9805 69.94 32.6305C69.81 33.0205 69.81 33.2805 69.81 33.4105V35.4905C69.81 36.4005 70.07 37.0505 70.59 37.7005C71.11 38.3505 71.89 38.6105 72.67 38.6105C73.71 38.6105 74.49 38.2205 75.01 37.4405C75.66 36.6605 75.92 35.6205 75.92 34.3205Z" fill="white"/>
<path d="M92.5605 34.3205C92.5605 36.4005 92.0405 37.9605 90.8705 39.2605C89.8305 40.3005 88.6605 40.8205 87.1005 40.8205C85.5405 40.8205 84.3705 40.3005 83.7205 39.1305V45.5005H80.9905V32.5005C80.9905 31.2005 80.9905 29.9005 80.8605 28.4705H83.2005L83.3305 30.4205C84.2405 28.9905 85.5405 28.2105 87.3605 28.2105C88.7905 28.2105 89.9605 28.7305 90.8705 29.9005C92.0405 30.9405 92.5605 32.3705 92.5605 34.3205ZM89.8305 34.3205C89.8305 33.1505 89.5705 32.1105 89.0505 31.4605C88.5305 30.6805 87.7505 30.2905 86.7105 30.2905C86.0605 30.2905 85.4105 30.5505 84.8905 30.9405C84.3705 31.3305 83.9805 31.9805 83.8505 32.6305C83.7205 33.0205 83.7205 33.2805 83.7205 33.4105V35.4905C83.7205 36.4005 83.9805 37.0505 84.5005 37.7005C85.0205 38.3505 85.8005 38.6105 86.5805 38.6105C87.6205 38.6105 88.4005 38.2205 88.9205 37.4405C89.5705 36.6605 89.8305 35.6205 89.8305 34.3205Z" fill="white"/>
<path d="M108.16 35.75C108.16 37.18 107.64 38.35 106.73 39.26C105.69 40.3 104.13 40.69 102.18 40.69C100.36 40.69 98.9295 40.3 97.8895 39.65L98.5395 37.44C99.7095 38.09 101.01 38.48 102.44 38.48C103.48 38.48 104.26 38.22 104.78 37.83C105.3 37.31 105.56 36.79 105.56 36.01C105.56 35.36 105.3 34.71 104.91 34.32C104.39 33.8 103.61 33.41 102.57 33.02C99.5795 31.98 98.1495 30.29 98.1495 28.21C98.1495 26.78 98.6695 25.74 99.7095 24.83C100.75 23.92 102.05 23.53 103.87 23.53C105.43 23.53 106.6 23.79 107.64 24.31L106.99 26.52C106.08 26 105.04 25.74 103.74 25.74C102.83 25.74 102.05 26 101.53 26.39C101.14 26.78 100.88 27.3 100.88 27.95C100.88 28.6 101.14 29.12 101.66 29.64C102.05 30.03 102.96 30.42 104.13 30.94C105.56 31.46 106.6 32.24 107.38 33.02C107.77 33.67 108.16 34.58 108.16 35.75Z" fill="white"/>
<path d="M116.999 30.42H114.009V36.27C114.009 37.7 114.529 38.48 115.569 38.48C116.089 38.48 116.479 38.48 116.739 38.35L116.869 40.43C116.349 40.69 115.699 40.69 114.789 40.69C113.749 40.69 112.839 40.43 112.319 39.78C111.669 39.13 111.409 38.09 111.409 36.53V30.42H109.589V28.34H111.409V26.13L114.009 25.35V28.34H116.999V30.42Z" fill="white"/>
<path d="M130.391 34.32C130.391 36.14 129.871 37.7 128.831 38.87C127.661 40.04 126.231 40.69 124.411 40.69C122.591 40.69 121.161 40.04 120.121 38.87C119.081 37.7 118.561 36.27 118.561 34.45C118.561 32.63 119.081 31.07 120.251 29.9C121.291 28.73 122.851 28.08 124.671 28.08C126.491 28.08 127.921 28.73 128.961 29.9C129.871 31.07 130.391 32.5 130.391 34.32ZM127.531 34.45C127.531 33.28 127.271 32.37 126.751 31.59C126.231 30.68 125.321 30.16 124.281 30.16C123.241 30.16 122.331 30.68 121.811 31.59C121.291 32.37 121.031 33.41 121.031 34.45C121.031 35.62 121.291 36.53 121.811 37.31C122.331 38.22 123.241 38.74 124.281 38.74C125.321 38.74 126.101 38.22 126.751 37.31C127.271 36.53 127.531 35.49 127.531 34.45Z" fill="white"/>
<path d="M139.1 30.68C138.84 30.68 138.58 30.55 138.19 30.55C137.28 30.55 136.5 30.94 135.98 31.59C135.59 32.24 135.33 33.02 135.33 33.93V40.3H132.6V31.98C132.6 30.55 132.6 29.38 132.47 28.21H134.81L134.94 30.55H135.07C135.33 29.77 135.85 29.12 136.37 28.6C137.02 28.21 137.67 27.95 138.32 27.95C138.58 27.95 138.84 27.95 138.97 27.95V30.68H139.1Z" fill="white"/>
<path d="M151.06 33.8C151.06 34.32 151.06 34.71 150.93 34.97H142.87C142.87 36.14 143.26 37.05 144.04 37.7C144.69 38.22 145.6 38.61 146.64 38.61C147.81 38.61 148.98 38.48 149.89 38.09L150.28 39.91C149.11 40.43 147.81 40.69 146.25 40.69C144.43 40.69 142.87 40.17 141.83 39C140.79 37.96 140.27 36.4 140.27 34.58C140.27 32.76 140.79 31.2 141.7 30.03C142.74 28.73 144.17 28.08 145.99 28.08C147.68 28.08 149.11 28.73 149.89 30.03C150.8 31.07 151.06 32.37 151.06 33.8ZM148.59 33.15C148.59 32.37 148.46 31.72 148.07 31.07C147.55 30.29 146.9 29.9 145.99 29.9C145.08 29.9 144.43 30.29 143.91 30.94C143.52 31.46 143.26 32.24 143.13 33.02H148.59V33.15Z" fill="white"/>
<path d="M59.0205 13.3895C59.0205 14.8195 58.6305 15.9895 57.7205 16.7695C56.9405 17.4195 55.7705 17.8095 54.2105 17.8095C53.4305 17.8095 52.7805 17.8095 52.2605 17.6795V9.6195C52.9105 9.4895 53.6905 9.4895 54.6005 9.4895C56.0305 9.4895 57.0705 9.7495 57.8505 10.3995C58.5005 11.0495 59.0205 12.0895 59.0205 13.3895ZM57.5905 13.3895C57.5905 12.4795 57.3305 11.6995 56.8105 11.1795C56.2905 10.6595 55.5105 10.3995 54.6005 10.3995C54.2105 10.3995 53.8205 10.3995 53.5605 10.5295V16.6395C53.6905 16.6395 54.0805 16.6395 54.4705 16.6395C55.5105 16.6395 56.2905 16.3795 56.8105 15.8595C57.3305 15.3395 57.5905 14.4295 57.5905 13.3895Z" fill="white"/>
<path d="M66.3 14.69C66.3 15.6 66.04 16.38 65.52 16.9C65 17.55 64.22 17.81 63.31 17.81C62.4 17.81 61.75 17.55 61.23 16.9C60.71 16.38 60.45 15.6 60.45 14.69C60.45 13.78 60.71 13 61.23 12.48C61.75 11.83 62.53 11.57 63.44 11.57C64.35 11.57 65 11.83 65.52 12.48C66.04 13 66.3 13.78 66.3 14.69ZM65 14.69C65 14.17 64.87 13.65 64.61 13.26C64.35 12.74 63.96 12.61 63.44 12.61C62.92 12.61 62.53 12.87 62.27 13.26C62.01 13.65 61.88 14.17 61.88 14.69C61.88 15.21 62.01 15.73 62.27 16.12C62.53 16.64 62.92 16.77 63.44 16.77C63.96 16.77 64.35 16.51 64.61 15.99C64.87 15.73 65 15.21 65 14.69Z" fill="white"/>
<path d="M76.31 11.7L74.49 17.68H73.32L72.54 15.08C72.28 14.43 72.15 13.78 72.02 13.13C71.89 13.78 71.76 14.43 71.5 15.08L70.72 17.68H69.55L67.6 11.7H68.9L69.55 14.56C69.68 15.21 69.81 15.86 69.94 16.51C70.07 15.99 70.2 15.34 70.46 14.56L71.24 11.7H72.28L73.06 14.43C73.32 15.08 73.45 15.73 73.58 16.38C73.71 15.73 73.84 15.08 73.97 14.43L74.75 11.7H76.31Z" fill="white"/>
<path d="M83.07 17.6795H81.77V14.2995C81.77 13.2595 81.38 12.7395 80.6 12.7395C80.21 12.7395 79.95 12.8695 79.69 13.1295C79.43 13.3895 79.3 13.7795 79.3 14.1695V17.6795H78V13.3895C78 12.8695 78 12.3495 78 11.6995H79.17V12.6095C79.3 12.3495 79.56 12.0895 79.82 11.8295C80.21 11.5695 80.6 11.4395 80.99 11.4395C81.51 11.4395 82.03 11.5695 82.42 11.9595C82.94 12.3495 83.07 12.9995 83.07 13.9095V17.6795Z" fill="white"/>
<path d="M86.7105 17.68H85.4105V8.96997H86.7105V17.68Z" fill="white"/>
<path d="M94.5105 14.69C94.5105 15.6 94.2505 16.38 93.7305 16.9C93.2105 17.55 92.4305 17.81 91.5205 17.81C90.6105 17.81 89.9605 17.55 89.4405 16.9C88.9205 16.38 88.6605 15.6 88.6605 14.69C88.6605 13.78 88.9205 13 89.4405 12.48C89.9605 11.96 90.7405 11.57 91.6505 11.57C92.5605 11.57 93.2105 11.83 93.7305 12.48C94.2505 13 94.5105 13.78 94.5105 14.69ZM93.2105 14.69C93.2105 14.17 93.0805 13.65 92.8205 13.26C92.5605 12.74 92.1705 12.61 91.6505 12.61C91.1305 12.61 90.7405 12.87 90.4805 13.26C90.2205 13.65 90.0905 14.17 90.0905 14.69C90.0905 15.21 90.2205 15.73 90.4805 16.12C90.7405 16.64 91.1305 16.77 91.6505 16.77C92.1705 16.77 92.5605 16.51 92.8205 15.99C93.0805 15.73 93.2105 15.21 93.2105 14.69Z" fill="white"/>
<path d="M100.88 17.68H99.7101L99.5801 17.03C99.1901 17.55 98.5401 17.81 97.8901 17.81C97.3701 17.81 96.8501 17.68 96.5901 17.29C96.3301 16.9 96.0701 16.51 96.0701 16.12C96.0701 15.34 96.3301 14.82 96.9801 14.43C97.6301 14.04 98.4101 13.91 99.5801 13.91V13.78C99.5801 13 99.1901 12.61 98.4101 12.61C97.7601 12.61 97.3701 12.74 96.8501 13L96.5901 12.09C97.1101 11.7 97.7601 11.57 98.6701 11.57C100.23 11.57 101.01 12.35 101.01 14.04V16.25C100.88 16.9 100.88 17.29 100.88 17.68ZM99.5801 15.6V14.69C98.1501 14.69 97.3701 15.08 97.3701 15.86C97.3701 16.12 97.5001 16.38 97.6301 16.51C97.7601 16.64 98.0201 16.77 98.2801 16.77C98.5401 16.77 98.8001 16.64 99.0601 16.51C99.3201 16.38 99.4501 16.12 99.5801 15.86C99.5801 15.86 99.5801 15.73 99.5801 15.6Z" fill="white"/>
<path d="M108.42 17.68H107.25V16.77C106.86 17.55 106.21 17.81 105.3 17.81C104.52 17.81 104 17.55 103.48 17.03C102.96 16.51 102.83 15.73 102.83 14.82C102.83 13.91 103.09 13.13 103.61 12.48C104.13 11.96 104.78 11.7 105.43 11.7C106.21 11.7 106.73 11.96 107.12 12.48V9.09998H108.42V16.12C108.42 16.64 108.42 17.16 108.42 17.68ZM107.12 15.21V14.17C107.12 14.04 107.12 13.91 107.12 13.78C106.99 13.52 106.86 13.26 106.6 13C106.34 12.74 106.08 12.74 105.69 12.74C105.17 12.74 104.78 13 104.52 13.39C104.26 13.78 104.13 14.3 104.13 14.95C104.13 15.6 104.26 15.99 104.52 16.38C104.78 16.77 105.17 17.03 105.69 17.03C106.08 17.03 106.47 16.9 106.73 16.51C106.99 15.99 107.12 15.6 107.12 15.21Z" fill="white"/>
<path d="M119.73 14.69C119.73 15.6 119.47 16.38 118.95 16.9C118.43 17.55 117.65 17.81 116.74 17.81C115.83 17.81 115.18 17.55 114.66 16.9C114.14 16.38 113.88 15.6 113.88 14.69C113.88 13.78 114.14 13 114.66 12.48C115.18 11.83 115.96 11.57 116.87 11.57C117.78 11.57 118.43 11.83 118.95 12.48C119.47 13 119.73 13.78 119.73 14.69ZM118.3 14.69C118.3 14.17 118.17 13.65 117.91 13.26C117.65 12.74 117.26 12.61 116.74 12.61C116.22 12.61 115.83 12.87 115.57 13.26C115.31 13.65 115.18 14.17 115.18 14.69C115.18 15.21 115.31 15.73 115.57 16.12C115.83 16.64 116.22 16.77 116.74 16.77C117.26 16.77 117.65 16.51 117.91 15.99C118.17 15.73 118.3 15.21 118.3 14.69Z" fill="white"/>
<path d="M126.881 17.6795H125.581V14.2995C125.581 13.2595 125.191 12.7395 124.411 12.7395C124.021 12.7395 123.761 12.8695 123.501 13.1295C123.241 13.3895 123.111 13.7795 123.111 14.1695V17.6795H121.811V13.3895C121.811 12.8695 121.811 12.3495 121.811 11.6995H122.981V12.6095C123.111 12.3495 123.371 12.0895 123.631 11.8295C124.021 11.5695 124.411 11.4395 124.801 11.4395C125.321 11.4395 125.841 11.5695 126.231 11.9595C126.751 12.3495 126.881 12.9995 126.881 13.9095V17.6795Z" fill="white"/>
<path d="M135.72 12.74H134.29V15.6C134.29 16.38 134.55 16.64 135.07 16.64C135.33 16.64 135.46 16.64 135.72 16.64V17.68C135.46 17.81 135.07 17.81 134.68 17.81C134.16 17.81 133.77 17.68 133.51 17.29C133.25 17.03 133.12 16.38 133.12 15.73V12.74H132.21V11.7H133.12V10.66L134.42 10.27V11.7H135.85V12.74H135.72Z" fill="white"/>
<path d="M142.74 17.68H141.44V14.3C141.44 13.26 141.05 12.74 140.27 12.74C139.62 12.74 139.23 13 138.97 13.65C138.97 13.78 138.97 13.91 138.97 14.17V17.68H137.67V8.96997H138.97V12.61C139.36 11.96 140.01 11.57 140.79 11.57C141.31 11.57 141.83 11.7 142.09 12.09C142.48 12.48 142.74 13.26 142.74 14.04V17.68Z" fill="white"/>
<path d="M149.89 14.43C149.89 14.69 149.89 14.82 149.89 15.08H145.99C145.99 15.73 146.25 16.12 146.51 16.38C146.9 16.64 147.29 16.77 147.81 16.77C148.46 16.77 148.98 16.64 149.37 16.51L149.63 17.42C149.11 17.68 148.46 17.81 147.68 17.81C146.77 17.81 145.99 17.55 145.47 17.03C144.95 16.51 144.69 15.73 144.69 14.82C144.69 13.91 144.95 13.13 145.47 12.61C145.99 11.96 146.64 11.7 147.55 11.7C148.46 11.7 149.11 11.96 149.5 12.61C149.76 13 149.89 13.65 149.89 14.43ZM148.72 14.04C148.72 13.65 148.59 13.26 148.46 13C148.2 12.61 147.94 12.48 147.42 12.48C147.03 12.48 146.64 12.61 146.38 13C146.12 13.26 145.99 13.65 145.99 14.04H148.72Z" fill="white"/>
</svg>
