<svg width="49" height="43" viewBox="0 0 49 43" fill="none" xmlns="http://www.w3.org/2000/svg">
<path d="M49 39.56C49 40.678 48.5964 41.5308 47.7893 42.1185C46.9822 42.7062 45.9916 43 44.8176 43H4.18239C3.00839 43 2.01782 42.699 1.21069 42.097C0.403564 41.495 0 40.6493 0 39.56C0 38.7 0.264151 37.8257 0.792453 36.937L21.0881 2.365C22.0566 0.788333 23.2013 0 24.522 0C25.8428 0 26.9581 0.788333 27.8679 2.365L48.2075 36.98C48.7358 37.8973 49 38.7573 49 39.56ZM27.5597 17.587V11.309H21.4403V17.587C21.4403 17.9883 21.4696 18.3682 21.5283 18.7265C21.587 19.0848 21.6677 19.4862 21.7704 19.9305C21.8732 20.3748 21.9539 20.7547 22.0126 21.07L23.1572 28.036H25.7547L26.9434 21.07C27.0021 20.7833 27.0901 20.4107 27.2075 19.952C27.3249 19.4933 27.413 19.0848 27.4717 18.7265C27.5304 18.3682 27.5597 17.9883 27.5597 17.587ZM27.5597 34.228C27.5597 33.3967 27.2589 32.6943 26.6572 32.121C26.0556 31.5477 25.3291 31.261 24.478 31.261C23.6562 31.261 22.9444 31.5477 22.3428 32.121C21.7411 32.6943 21.4403 33.3967 21.4403 34.228C21.4403 35.0593 21.7411 35.7688 22.3428 36.3565C22.9444 36.9442 23.6562 37.238 24.478 37.238C25.3291 37.238 26.0556 36.9442 26.6572 36.3565C27.2589 35.7688 27.5597 35.0593 27.5597 34.228Z" fill="#FF2D55"/>
</svg>
