<svg width="19" height="17" viewBox="0 0 19 17" fill="none" xmlns="http://www.w3.org/2000/svg">
<path d="M19 15.64C19 16.082 18.8435 16.4192 18.5305 16.6515C18.2176 16.8838 17.8335 17 17.3783 17H1.62174C1.16652 17 0.78242 16.881 0.469452 16.643C0.156484 16.405 0 16.0707 0 15.64C0 15.3 0.102426 14.9543 0.307278 14.603L8.177 0.935C8.55256 0.311667 8.99641 0 9.50854 0C10.0207 0 10.4531 0.311667 10.8059 0.935L18.6927 14.62C18.8976 14.9827 19 15.3227 19 15.64ZM10.6864 6.953V4.471H8.31357V6.953C8.31357 7.11167 8.32495 7.26183 8.34771 7.4035C8.37047 7.54517 8.40177 7.70383 8.4416 7.8795C8.48143 8.05517 8.51273 8.20533 8.53549 8.33L8.97933 11.084H9.98652L10.4474 8.33C10.4702 8.21667 10.5043 8.06933 10.5499 7.888C10.5954 7.70667 10.6295 7.54517 10.6523 7.4035C10.6751 7.26183 10.6864 7.11167 10.6864 6.953ZM10.6864 13.532C10.6864 13.2033 10.5698 12.9257 10.3365 12.699C10.1032 12.4723 9.8215 12.359 9.49146 12.359C9.17281 12.359 8.89682 12.4723 8.66352 12.699C8.43022 12.9257 8.31357 13.2033 8.31357 13.532C8.31357 13.8607 8.43022 14.1412 8.66352 14.3735C8.89682 14.6058 9.17281 14.722 9.49146 14.722C9.8215 14.722 10.1032 14.6058 10.3365 14.3735C10.5698 14.1412 10.6864 13.8607 10.6864 13.532Z" fill="#FF2D55"/>
</svg>
