<svg width="24" height="24" viewBox="0 0 24 24" fill="none" xmlns="http://www.w3.org/2000/svg">
<g clip-path="url(#clip0)">
<path d="M21.3333 3.33337H2.66667C1.95942 3.33337 1.28115 3.61433 0.781049 4.11442C0.280952 4.61452 0 5.2928 0 6.00004L0 12H24V6.00004C24 5.2928 23.719 4.61452 23.219 4.11442C22.7189 3.61433 22.0406 3.33337 21.3333 3.33337Z" fill="#1100FF"/>
<path d="M24 18C24 18.7072 23.719 19.3855 23.219 19.8856C22.7189 20.3857 22.0406 20.6667 21.3333 20.6667H2.66667C1.95942 20.6667 1.28115 20.3857 0.781049 19.8856C0.280952 19.3855 0 18.7072 0 18V12H24V18Z" fill="#FFD500"/>
<mask id="mask0" mask-type="alpha" maskUnits="userSpaceOnUse" x="0" y="3" width="24" height="18">
<path fill-rule="evenodd" clip-rule="evenodd" d="M2.66667 3.33325H21.3333C22.0406 3.33325 22.7189 3.6142 23.219 4.1143C23.719 4.6144 24 5.29267 24 5.99992V11.9999H0V5.99992C0 5.29267 0.280952 4.6144 0.781049 4.1143C1.28115 3.6142 1.95942 3.33325 2.66667 3.33325ZM23.219 19.8856C23.719 19.3855 24 18.7072 24 17.9999V11.9999H0V17.9999C0 18.7072 0.280952 19.3855 0.781049 19.8856C1.28115 20.3857 1.95942 20.6666 2.66667 20.6666H21.3333C22.0406 20.6666 22.7189 20.3857 23.219 19.8856Z" fill="#FFD500"/>
</mask>
<g mask="url(#mask0)">
<path d="M-2.63184 3H26.7366V21H-2.63184V3Z" fill="white"/>
<path d="M-2.63184 3H5.4208V21H-2.63184V3Z" fill="#E80919"/>
<path d="M18.6836 3H26.7362V21H18.6836V3Z" fill="#E80919"/>
<path d="M12.0527 16.7368V14.3684V16.7368Z" fill="#E80919"/>
<path d="M12.0527 16.7368V14.3684" stroke="#E80919" stroke-width="0.5" stroke-linecap="round" stroke-linejoin="round"/>
<path d="M12.0527 14.3684H15.2738L14.8948 13.4211L16.7896 11.5263V10.1053H15.3685L13.4738 12V8.68424L12.0527 7.26318" fill="#E80919"/>
<path d="M12.0527 14.3684H15.2738L14.8948 13.4211L16.7896 11.5263V10.1053H15.3685L13.4738 12V8.68424L12.0527 7.26318" stroke="#E80919" stroke-width="0.5" stroke-linecap="round" stroke-linejoin="round"/>
<path d="M12.0523 14.3684H8.83122L9.21017 13.4211L7.31543 11.5263V10.1053H8.73648L10.6312 12V8.68424L12.0523 7.26318" fill="#E80919"/>
<path d="M12.0523 14.3684H8.83122L9.21017 13.4211L7.31543 11.5263V10.1053H8.73648L10.6312 12V8.68424L12.0523 7.26318" stroke="#E80919" stroke-width="0.5" stroke-linecap="round" stroke-linejoin="round"/>
</g>
</g>
<defs>
<clipPath id="clip0">
<rect width="24" height="24" fill="white"/>
</clipPath>
</defs>
</svg>
