<svg width="96" height="24" viewBox="0 0 96 24" fill="none" xmlns="http://www.w3.org/2000/svg">
<path d="M38.038 18.216C36.238 18.216 34.738 17.64 33.538 16.488C32.338 15.324 31.738 13.83 31.738 12.006C31.738 10.182 32.338 8.694 33.538 7.542C34.738 6.378 36.238 5.796 38.038 5.796C40.126 5.796 41.734 6.696 42.862 8.496L41.062 9.414C40.762 8.898 40.336 8.478 39.784 8.154C39.244 7.83 38.662 7.668 38.038 7.668C36.85 7.668 35.86 8.076 35.068 8.892C34.288 9.708 33.898 10.746 33.898 12.006C33.898 13.266 34.288 14.304 35.068 15.12C35.86 15.936 36.85 16.344 38.038 16.344C38.674 16.344 39.262 16.182 39.802 15.858C40.342 15.534 40.762 15.114 41.062 14.598L42.862 15.516C41.71 17.316 40.102 18.216 38.038 18.216ZM52.2695 18H50.3795V12.528C50.3795 11.892 50.2235 11.442 49.9115 11.178C49.6115 10.902 49.1795 10.764 48.6155 10.764C48.1715 10.764 47.7515 10.878 47.3555 11.106C46.9595 11.334 46.6355 11.61 46.3835 11.934V18H44.4935V5.994H46.3835V10.494C46.7075 10.11 47.1395 9.78 47.6795 9.504C48.2315 9.228 48.8255 9.09 49.4615 9.09C51.3335 9.09 52.2695 10.008 52.2695 11.844V18ZM56.614 18H54.724V9.306H56.614V10.584C56.95 10.152 57.37 9.798 57.874 9.522C58.378 9.246 58.9 9.108 59.44 9.108V10.98C59.272 10.944 59.074 10.926 58.846 10.926C58.45 10.926 58.024 11.046 57.568 11.286C57.124 11.514 56.806 11.778 56.614 12.078V18ZM64.8882 18.216C63.5442 18.216 62.4642 17.778 61.6482 16.902C60.8322 16.014 60.4242 14.928 60.4242 13.644C60.4242 12.36 60.8322 11.28 61.6482 10.404C62.4642 9.528 63.5442 9.09 64.8882 9.09C66.2442 9.09 67.3302 9.528 68.1462 10.404C68.9622 11.28 69.3702 12.36 69.3702 13.644C69.3702 14.94 68.9622 16.026 68.1462 16.902C67.3302 17.778 66.2442 18.216 64.8882 18.216ZM64.8882 16.542C65.6682 16.542 66.2802 16.266 66.7242 15.714C67.1802 15.15 67.4082 14.46 67.4082 13.644C67.4082 12.84 67.1802 12.162 66.7242 11.61C66.2802 11.046 65.6682 10.764 64.8882 10.764C64.1202 10.764 63.5082 11.046 63.0522 11.61C62.6082 12.162 62.3862 12.84 62.3862 13.644C62.3862 14.46 62.6082 15.15 63.0522 15.714C63.5082 16.266 64.1202 16.542 64.8882 16.542ZM83.8286 18H81.9386V12.33C81.9386 11.286 81.4646 10.764 80.5166 10.764C80.1206 10.764 79.7366 10.878 79.3646 11.106C78.9926 11.334 78.7046 11.604 78.5006 11.916V18H76.6106V12.33C76.6106 11.286 76.1306 10.764 75.1706 10.764C74.7866 10.764 74.4086 10.878 74.0366 11.106C73.6766 11.334 73.3886 11.61 73.1726 11.934V18H71.2826V9.306H73.1726V10.494C73.3886 10.17 73.7606 9.858 74.2886 9.558C74.8286 9.246 75.3986 9.09 75.9986 9.09C77.2586 9.09 78.0506 9.624 78.3746 10.692C78.6506 10.26 79.0586 9.888 79.5986 9.576C80.1386 9.252 80.7146 9.09 81.3266 9.09C82.9946 9.09 83.8286 9.966 83.8286 11.718V18ZM90.2907 18.216C88.9707 18.216 87.8787 17.796 87.0147 16.956C86.1627 16.104 85.7367 15 85.7367 13.644C85.7367 12.372 86.1507 11.298 86.9787 10.422C87.8187 9.534 88.8747 9.09 90.1467 9.09C91.4307 9.09 92.4627 9.534 93.2427 10.422C94.0347 11.31 94.4307 12.444 94.4307 13.824V14.274H87.7167C87.7887 14.958 88.0707 15.528 88.5627 15.984C89.0547 16.44 89.6967 16.668 90.4887 16.668C90.9327 16.668 91.3767 16.584 91.8207 16.416C92.2767 16.248 92.6547 16.014 92.9547 15.714L93.8187 16.956C92.9427 17.796 91.7667 18.216 90.2907 18.216ZM92.5947 12.942C92.5707 12.342 92.3487 11.808 91.9287 11.34C91.5207 10.872 90.9267 10.638 90.1467 10.638C89.4027 10.638 88.8207 10.872 88.4007 11.34C87.9807 11.796 87.7467 12.33 87.6987 12.942H92.5947Z" fill="#2A334F"/>
<g clip-path="url(#clip0)">
<path fill-rule="evenodd" clip-rule="evenodd" d="M11.973 16.414C10.8295 16.4122 9.73339 15.957 8.92491 15.1484C8.11644 14.3397 7.66156 13.2435 7.65997 12.1C7.6613 10.9562 8.1162 9.85956 8.92492 9.05065C9.73363 8.24175 10.8301 7.78659 11.974 7.785C13.118 7.78633 14.2147 8.24137 15.0237 9.0503C15.8326 9.85923 16.2876 10.956 16.289 12.1C16.2874 13.2438 15.8322 14.3403 15.0233 15.1491C14.2144 15.9578 13.1178 16.4127 11.974 16.414H11.973Z" fill="#4285F4"/>
<path fill-rule="evenodd" clip-rule="evenodd" d="M13.791 17.181C12.8911 17.5076 11.9216 17.594 10.9782 17.4316C10.0347 17.2692 9.1499 16.8637 8.41099 16.255C7.61437 15.598 7.01896 14.7298 6.69299 13.75L6.69099 13.744L1.93599 5.51001C0.23077 8.11922 -0.381849 11.2936 0.229987 14.35C0.530438 15.894 1.13412 17.3631 2.0061 18.6723C2.87808 19.9815 4.00103 21.1047 5.30999 21.977C6.68433 22.9009 8.23646 23.5276 9.86699 23.817L13.791 17.182V17.181Z" fill="#4AAE48"/>
<path fill-rule="evenodd" clip-rule="evenodd" d="M22.76 6.70701C21.8605 4.89747 20.5215 3.34249 18.8654 2.18445C17.2094 1.02641 15.2893 0.3023 13.281 0.0784342C11.2727 -0.145432 9.24026 0.138094 7.36987 0.903051C5.49949 1.66801 3.85088 2.88996 2.57501 4.45701L6.59101 11.413C6.7563 10.1251 7.38071 8.94004 8.34956 8.07553C9.31842 7.21102 10.5667 6.7251 11.865 6.70701H22.76Z" fill="#EA3939"/>
<path fill-rule="evenodd" clip-rule="evenodd" d="M11.926 24C14.936 24 17.817 22.871 20.036 20.822C22.2635 18.7706 23.6276 15.9489 23.852 12.929C23.9811 11.1806 23.7272 9.42513 23.108 7.785H15.252C15.9065 8.30273 16.4347 8.96246 16.7968 9.71432C17.1588 10.4662 17.3453 11.2905 17.342 12.125C17.334 13.3519 16.9182 14.5414 16.16 15.506L11.152 23.976C11.41 23.992 11.67 24 11.926 24V24Z" fill="#FED14B"/>
</g>
<defs>
<clipPath id="clip0">
<rect width="24" height="24" fill="white"/>
</clipPath>
</defs>
</svg>
