<svg width="24" height="24" viewBox="0 0 24 24" fill="none" xmlns="http://www.w3.org/2000/svg">
<path d="M13.1748 12L19.2498 5.92497C19.3863 5.76556 19.4577 5.56049 19.4496 5.35076C19.4415 5.14103 19.3545 4.94208 19.2061 4.79367C19.0577 4.64526 18.8588 4.55831 18.649 4.55021C18.4393 4.54211 18.2342 4.61345 18.0748 4.74997L11.9998 10.825L5.92481 4.74164C5.7654 4.60512 5.56033 4.53378 5.3506 4.54188C5.14087 4.54998 4.94192 4.63693 4.79351 4.78534C4.6451 4.93375 4.55816 5.1327 4.55006 5.34243C4.54195 5.55216 4.61329 5.75722 4.74982 5.91664L10.8248 12L4.74148 18.075C4.65425 18.1497 4.5834 18.2416 4.53338 18.345C4.48336 18.4484 4.45525 18.561 4.45082 18.6758C4.44638 18.7905 4.46572 18.905 4.50762 19.0119C4.54951 19.1189 4.61306 19.216 4.69427 19.2972C4.77549 19.3784 4.87261 19.4419 4.97955 19.4838C5.08648 19.5257 5.20093 19.5451 5.31569 19.5406C5.43046 19.5362 5.54307 19.5081 5.64646 19.4581C5.74984 19.4081 5.84178 19.3372 5.91648 19.25L11.9998 13.175L18.0748 19.25C18.2342 19.3865 18.4393 19.4578 18.649 19.4497C18.8588 19.4416 19.0577 19.3547 19.2061 19.2063C19.3545 19.0579 19.4415 18.8589 19.4496 18.6492C19.4577 18.4395 19.3863 18.2344 19.2498 18.075L13.1748 12Z" fill="#2A334F"/>
</svg>
