<svg width="40" height="40" viewBox="0 0 40 40" fill="none" xmlns="http://www.w3.org/2000/svg">
<path d="M39.375 18.75V23.75C39.375 24.7838 38.5337 25.625 37.5 25.625H36.875V26.875H37.5C37.8452 26.875 38.125 27.1548 38.125 27.5C38.125 27.8452 37.8452 28.125 37.5 28.125H30C29.6548 28.125 29.375 27.8452 29.375 27.5C29.375 27.1548 29.6548 26.875 30 26.875H30.625V25.625H30C28.9662 25.625 28.125 24.7838 28.125 23.75V18.75C28.125 17.7162 28.9662 16.875 30 16.875H37.5C38.5337 16.875 39.375 17.7162 39.375 18.75ZM29.375 18.75V21.875H38.125V18.75C38.125 18.4056 37.8444 18.125 37.5 18.125H30C29.6556 18.125 29.375 18.4056 29.375 18.75ZM35.625 25.625H31.875V26.875H35.625V25.625ZM38.125 23.75V23.125H29.375V23.75C29.375 24.0944 29.6556 24.375 30 24.375H37.5C37.8444 24.375 38.125 24.0944 38.125 23.75ZM0.625 26.25V18.75C0.625 17.7162 1.46625 16.875 2.5 16.875H6.25C7.28375 16.875 8.125 17.7162 8.125 18.75V26.25C8.125 27.2838 7.28375 28.125 6.25 28.125H2.5C1.46625 28.125 0.625 27.2838 0.625 26.25ZM6.875 26.25V25.625H1.875V26.25C1.875 26.5944 2.15562 26.875 2.5 26.875H6.25C6.59438 26.875 6.875 26.5944 6.875 26.25ZM6.875 24.375V20.625H1.875V24.375H6.875ZM1.875 18.75V19.375H6.875V18.75C6.875 18.4056 6.59438 18.125 6.25 18.125H2.5C2.15562 18.125 1.875 18.4056 1.875 18.75ZM23.195 33.825C24.6694 34.7306 25.625 36.3488 25.625 38.1769V39.375H14.375V38.1769C14.375 36.3494 15.3306 34.7312 16.805 33.8256C15.895 33.2706 15.2406 32.3406 15.0562 31.2506H15C13.6213 31.2506 12.5 30.1294 12.5 28.7506C12.5 28.2769 12.64 27.8387 12.8694 27.4606L12.6988 26.9494C12.5669 26.5519 12.5 26.1394 12.5 25.7225C12.5 24.6675 12.89 23.7262 13.5981 23.0181L13.7594 22.8569C13.8975 20.9137 15.5225 19.375 17.5 19.375H22.5588C23.7869 19.375 24.7956 20.2894 24.965 21.4713L25.1319 21.5544C26.5925 22.285 27.5 23.7531 27.5 25.3862C27.5 26.0481 27.3438 26.7106 27.0475 27.3019L27.0412 27.315C27.3281 27.7219 27.5 28.2156 27.5 28.75C27.5 30.1287 26.3787 31.25 25 31.25H24.9438C24.7594 32.34 24.105 33.27 23.195 33.825ZM26.25 28.75C26.25 28.0606 25.6894 27.5 25 27.5V30C25.6894 30 26.25 29.4394 26.25 28.75ZM15 30V27.5C14.3106 27.5 13.75 28.0606 13.75 28.75C13.75 29.4394 14.3106 30 15 30ZM16.5956 23.8156L16.875 23.6763L17.1544 23.8162C18.7031 24.5906 20.4375 25 22.17 25H25V26.25C25.3725 26.25 25.7231 26.3375 26.0406 26.4837C26.1763 26.1344 26.25 25.7612 26.25 25.3862C26.25 24.3131 25.6925 23.3469 24.7869 22.7987C24.515 23.415 23.9994 23.9087 23.3313 24.1319L22.6981 24.3431L22.3025 23.1575L22.9356 22.9463C23.4231 22.7838 23.75 22.33 23.75 21.8162C23.75 21.1594 23.2156 20.625 22.5588 20.625H17.5C16.1213 20.625 15 21.7463 15 23.125V23.3838L14.4819 23.9019C14.01 24.3737 13.75 25.0019 13.75 25.6694C13.75 25.9944 13.795 26.2663 13.8787 26.5275C14.2175 26.3563 14.595 26.25 15 26.25H15.01C15.0625 25.21 15.6556 24.2856 16.5956 23.8156ZM19.375 35C19.375 35.3444 19.6556 35.625 20 35.625C20.3444 35.625 20.625 35.3444 20.625 35V34.375H19.375V35ZM21.875 34.5662V35C21.875 36.0337 21.0338 36.875 20 36.875C18.9662 36.875 18.125 36.0337 18.125 35V34.5662C16.6575 35.1162 15.6462 36.5075 15.625 38.125H24.375C24.3538 36.5081 23.3425 35.1169 21.875 34.5662ZM23.75 26.25H22.17C20.36 26.25 18.5487 25.8481 16.9088 25.085C16.4969 25.3906 16.25 25.8712 16.25 26.3975V30.625C16.25 32.0037 17.3713 33.125 18.75 33.125H21.25C22.6287 33.125 23.75 32.0037 23.75 30.625V26.25ZM18.125 26.875C17.78 26.875 17.5 27.155 17.5 27.5C17.5 27.845 17.78 28.125 18.125 28.125C18.47 28.125 18.75 27.845 18.75 27.5C18.75 27.155 18.47 26.875 18.125 26.875ZM21.25 27.5C21.25 27.845 21.53 28.125 21.875 28.125C22.22 28.125 22.5 27.845 22.5 27.5C22.5 27.155 22.22 26.875 21.875 26.875C21.53 26.875 21.25 27.155 21.25 27.5ZM20.625 30.625H18.75V31.875H20.625C21.6588 31.875 22.5 31.0338 22.5 30H21.25C21.25 30.3444 20.9694 30.625 20.625 30.625ZM19.2252 17.0632C18.9147 17.2139 18.9165 17.6221 19.1605 17.8662L19.2552 17.9608C19.447 18.1526 19.7732 18.1255 20.0445 18.1255C20.3156 18.1255 20.6421 18.1529 20.8338 17.9612L20.9284 17.8666C21.1726 17.6224 21.1742 17.2138 20.8634 17.0632C20.3477 16.8133 19.7407 16.8131 19.2252 17.0632ZM22.6958 16.0983C22.9401 15.8542 22.9424 15.4539 22.6664 15.2465C21.9139 14.6809 21.0028 14.375 20.045 14.375C19.0866 14.375 18.1752 14.681 17.4226 15.2467C17.1468 15.4541 17.1491 15.8541 17.3931 16.0981C17.6372 16.3422 18.0301 16.3356 18.3174 16.1443C18.8248 15.8065 19.4205 15.625 20.0444 15.625C20.6678 15.625 21.2638 15.8065 21.7713 16.1444C22.0586 16.3356 22.4516 16.3423 22.6958 16.0983ZM15.6446 13.4671C15.3795 13.6882 15.381 14.0866 15.625 14.3306C15.869 14.5747 16.2629 14.5713 16.5323 14.3556C18.5774 12.7183 21.5104 12.7183 23.5564 14.3557C23.8259 14.5714 24.2197 14.5747 24.4637 14.3307C24.7078 14.0866 24.7092 13.6881 24.4442 13.4671C21.905 11.3492 18.1847 11.3488 15.6446 13.4671ZM11.0141 5.7142C11.3059 5.53 11.4084 5.14857 11.2353 4.84999C11.0622 4.55141 10.6791 4.4488 10.3868 4.63223C6.6499 6.97693 3.85706 10.654 2.61211 14.868C2.5143 15.1991 2.7167 15.5403 3.05104 15.6263C3.3853 15.7122 3.72481 15.5105 3.82345 15.1797C4.98423 11.2878 7.56482 7.89092 11.0141 5.7142ZM36.1769 15.179C36.2751 15.5098 36.6147 15.7116 36.9489 15.6257C37.2833 15.5397 37.4856 15.1984 37.3881 14.8672C35.993 10.1272 32.7379 6.18279 28.3386 3.90316C28.0322 3.74435 27.6585 3.87772 27.5103 4.18944C27.362 4.50111 27.4953 4.87298 27.8013 5.03252C31.8656 7.15118 34.8759 10.798 36.1769 15.179ZM34.9265 30.2855C35.1224 30.0013 35.0369 29.614 34.7463 29.4278C34.4556 29.2416 34.07 29.327 33.8734 29.6108C32.1761 32.0601 29.8873 33.9993 27.1993 35.267C26.8872 35.4142 26.7393 35.7803 26.8749 36.0977C27.0106 36.4151 27.3785 36.5634 27.6911 36.4169C30.6103 35.049 33.0922 32.9457 34.9265 30.2855ZM6.09741 29.5684C5.9017 29.2842 5.51648 29.1975 5.22523 29.3827C4.93381 29.5679 4.84694 29.9551 5.04205 30.24C6.87869 32.9221 9.37156 35.0411 12.3082 36.417C12.6208 36.5634 12.9887 36.4151 13.1244 36.0977C13.2601 35.7804 13.1122 35.4142 12.8001 35.267C10.0962 33.9918 7.79751 32.0376 6.09741 29.5684Z" fill="#E34600"/>
<path d="M21.4945 1.84748C21.297 1.76907 21.0938 1.92283 21.0938 2.13533C21.0938 2.27313 21.1824 2.39418 21.3097 2.44685C22.5574 2.96292 23.4375 4.19307 23.4375 5.62501C23.4375 7.52046 21.8954 9.06251 20 9.06251C18.1046 9.06251 16.5625 7.52046 16.5625 5.62501C16.5625 4.19307 17.4426 2.96292 18.6903 2.44685C18.8176 2.39418 18.9062 2.27313 18.9062 2.13533C18.9062 1.92283 18.703 1.76907 18.5055 1.84748C17.0028 2.44407 15.9375 3.91235 15.9375 5.62501C15.9375 7.86506 17.7599 9.68751 20 9.68751C22.2401 9.68751 24.0625 7.86506 24.0625 5.62501C24.0625 3.91235 22.9972 2.44407 21.4945 1.84748Z" fill="#E34600" stroke="#E34600" stroke-width="0.5"/>
<path d="M19.6875 0.625C19.6875 0.452411 19.8274 0.3125 20 0.3125C20.1726 0.3125 20.3125 0.452411 20.3125 0.625V5.3125C20.3125 5.48509 20.1726 5.625 20 5.625C19.8274 5.625 19.6875 5.48509 19.6875 5.3125V0.625Z" fill="#E34600" stroke="#E34600" stroke-width="0.5"/>
</svg>
