<svg width="170" height="52" viewBox="0 0 170 52" fill="none" xmlns="http://www.w3.org/2000/svg">
<path d="M164.688 52H5.3125C2.39062 52 0 49.66 0 46.8V5.2C0 2.34 2.39062 0 5.3125 0H164.688C167.609 0 170 2.34 170 5.2V46.8C170 49.66 167.609 52 164.688 52Z" fill="#009B64"/>
<path d="M69.58 32H64.32V18.66H69.58C71.6733 18.66 73.3733 19.2733 74.68 20.5C76 21.7267 76.66 23.34 76.66 25.34C76.66 27.34 76.0067 28.9533 74.7 30.18C73.3933 31.3933 71.6867 32 69.58 32ZM69.58 29.5C70.86 29.5 71.8733 29.1 72.62 28.3C73.38 27.5 73.76 26.5133 73.76 25.34C73.76 24.1133 73.3933 23.1133 72.66 22.34C71.9267 21.5533 70.9 21.16 69.58 21.16H67.16V29.5H69.58ZM86.8155 30.78C85.8821 31.7533 84.6421 32.24 83.0955 32.24C81.5488 32.24 80.3088 31.7533 79.3755 30.78C78.4555 29.7933 77.9955 28.5867 77.9955 27.16C77.9955 25.7333 78.4555 24.5333 79.3755 23.56C80.3088 22.5867 81.5488 22.1 83.0955 22.1C84.6421 22.1 85.8821 22.5867 86.8155 23.56C87.7488 24.5333 88.2155 25.7333 88.2155 27.16C88.2155 28.5867 87.7488 29.7933 86.8155 30.78ZM81.2955 29.18C81.7355 29.7133 82.3355 29.98 83.0955 29.98C83.8555 29.98 84.4555 29.7133 84.8955 29.18C85.3488 28.6333 85.5755 27.96 85.5755 27.16C85.5755 26.3733 85.3488 25.7133 84.8955 25.18C84.4555 24.6333 83.8555 24.36 83.0955 24.36C82.3355 24.36 81.7355 24.6333 81.2955 25.18C80.8555 25.7133 80.6355 26.3733 80.6355 27.16C80.6355 27.96 80.8555 28.6333 81.2955 29.18ZM101.28 32H98.5798L96.5398 25.42L94.4998 32H91.7798L88.8398 22.34H91.4798L93.2798 28.84L95.3998 22.34H97.6598L99.7798 28.84L101.58 22.34H104.22L101.28 32ZM114.531 32H111.991V26.16C111.991 24.96 111.398 24.36 110.211 24.36C109.291 24.36 108.558 24.74 108.011 25.5V32H105.471V22.34H108.011V23.6C108.851 22.6 109.978 22.1 111.391 22.1C112.431 22.1 113.211 22.3733 113.731 22.92C114.264 23.4667 114.531 24.22 114.531 25.18V32ZM119.593 32H117.053V18.66H119.593V32ZM130.312 30.78C129.378 31.7533 128.138 32.24 126.592 32.24C125.045 32.24 123.805 31.7533 122.872 30.78C121.952 29.7933 121.492 28.5867 121.492 27.16C121.492 25.7333 121.952 24.5333 122.872 23.56C123.805 22.5867 125.045 22.1 126.592 22.1C128.138 22.1 129.378 22.5867 130.312 23.56C131.245 24.5333 131.712 25.7333 131.712 27.16C131.712 28.5867 131.245 29.7933 130.312 30.78ZM124.792 29.18C125.232 29.7133 125.832 29.98 126.592 29.98C127.352 29.98 127.952 29.7133 128.392 29.18C128.845 28.6333 129.072 27.96 129.072 27.16C129.072 26.3733 128.845 25.7133 128.392 25.18C127.952 24.6333 127.352 24.36 126.592 24.36C125.832 24.36 125.232 24.6333 124.792 25.18C124.352 25.7133 124.132 26.3733 124.132 27.16C124.132 27.96 124.352 28.6333 124.792 29.18ZM141.936 32H139.396V31C138.703 31.8267 137.683 32.24 136.336 32.24C135.469 32.24 134.689 31.96 133.996 31.4C133.316 30.8267 132.976 30.04 132.976 29.04C132.976 28 133.309 27.22 133.976 26.7C134.656 26.18 135.443 25.92 136.336 25.92C137.709 25.92 138.729 26.3133 139.396 27.1V25.8C139.396 25.3067 139.203 24.9133 138.816 24.62C138.429 24.3267 137.916 24.18 137.276 24.18C136.223 24.18 135.283 24.56 134.456 25.32L133.496 23.62C134.643 22.6067 136.049 22.1 137.716 22.1C138.956 22.1 139.969 22.3867 140.756 22.96C141.543 23.5333 141.936 24.4667 141.936 25.76V32ZM137.356 30.52C138.303 30.52 138.983 30.24 139.396 29.68V28.48C138.983 27.92 138.303 27.64 137.356 27.64C136.836 27.64 136.403 27.7733 136.056 28.04C135.709 28.2933 135.536 28.6467 135.536 29.1C135.536 29.54 135.709 29.8867 136.056 30.14C136.403 30.3933 136.836 30.52 137.356 30.52ZM153.655 32H151.095V30.76C150.309 31.7467 149.315 32.24 148.115 32.24C146.862 32.24 145.835 31.7933 145.035 30.9C144.235 29.9933 143.835 28.7533 143.835 27.18C143.835 25.6333 144.235 24.4 145.035 23.48C145.835 22.56 146.862 22.1 148.115 22.1C149.342 22.1 150.335 22.5933 151.095 23.58V18.66H153.655V32ZM148.895 29.98C149.322 29.98 149.742 29.88 150.155 29.68C150.569 29.4667 150.882 29.2 151.095 28.88V25.46C150.882 25.14 150.569 24.88 150.155 24.68C149.742 24.4667 149.322 24.36 148.895 24.36C148.175 24.36 147.589 24.62 147.135 25.14C146.682 25.66 146.455 26.34 146.455 27.18C146.455 28.0067 146.682 28.68 147.135 29.2C147.589 29.72 148.175 29.98 148.895 29.98Z" fill="white"/>
<path d="M43.875 14.125H19.125C17.9859 14.125 17.0625 15.0484 17.0625 16.1875V32.6875C17.0625 33.8266 17.9859 34.75 19.125 34.75H43.875C45.0141 34.75 45.9375 33.8266 45.9375 32.6875V16.1875C45.9375 15.0484 45.0141 14.125 43.875 14.125Z" stroke="white" stroke-linejoin="round"/>
<path d="M34.5938 38.875L34.0781 34.75H28.9219L28.4062 38.875H34.5938Z" fill="white" stroke="white" stroke-linecap="round" stroke-linejoin="round"/>
<path d="M38.7188 38.875H24.2812" stroke="white" stroke-linecap="round" stroke-linejoin="round"/>
<path d="M17.0625 29.5938V32.6875C17.064 33.234 17.2818 33.7578 17.6683 34.1442C18.0547 34.5307 18.5785 34.7485 19.125 34.75H43.875C44.4215 34.7485 44.9453 34.5307 45.3317 34.1442C45.7182 33.7578 45.936 33.234 45.9375 32.6875V29.5938H17.0625ZM31.5 33.7188C31.296 33.7188 31.0967 33.6583 30.9271 33.545C30.7575 33.4316 30.6253 33.2706 30.5472 33.0821C30.4692 32.8937 30.4488 32.6864 30.4886 32.4863C30.5284 32.2863 30.6266 32.1025 30.7708 31.9583C30.915 31.8141 31.0988 31.7159 31.2988 31.6761C31.4989 31.6363 31.7062 31.6567 31.8946 31.7347C32.0831 31.8128 32.2441 31.945 32.3575 32.1146C32.4708 32.2842 32.5312 32.4835 32.5312 32.6875C32.5312 32.961 32.4226 33.2233 32.2292 33.4167C32.0358 33.6101 31.7735 33.7188 31.5 33.7188Z" fill="white"/>
</svg>
