<svg width="20" height="20" viewBox="0 0 20 20" fill="none" xmlns="http://www.w3.org/2000/svg">
<circle cx="10" cy="10" r="10" fill="#009B64"/>
<path d="M8.0002 12.8L5.66687 10.4667C5.60585 10.4049 5.53318 10.3559 5.45308 10.3224C5.37297 10.2889 5.28702 10.2717 5.2002 10.2717C5.11338 10.2717 5.02743 10.2889 4.94732 10.3224C4.86722 10.3559 4.79455 10.4049 4.73353 10.4667C4.67177 10.5277 4.62274 10.6004 4.58927 10.6805C4.55581 10.7606 4.53857 10.8465 4.53857 10.9333C4.53857 11.0202 4.55581 11.1061 4.58927 11.1862C4.62274 11.2663 4.67177 11.339 4.73353 11.4L7.52687 14.1933C7.78687 14.4533 8.20687 14.4533 8.46687 14.1933L15.5335 7.13334C15.5953 7.07232 15.6443 6.99965 15.6778 6.91955C15.7113 6.83944 15.7285 6.75349 15.7285 6.66667C15.7285 6.57985 15.7113 6.4939 15.6778 6.41379C15.6443 6.33369 15.5953 6.26102 15.5335 6.2C15.4725 6.13824 15.3999 6.08921 15.3197 6.05574C15.2396 6.02228 15.1537 6.00504 15.0669 6.00504C14.9801 6.00504 14.8941 6.02228 14.814 6.05574C14.7339 6.08921 14.6612 6.13824 14.6002 6.2L8.0002 12.8Z" fill="white"/>
</svg>
