<svg width="82" height="24" viewBox="0 0 82 24" fill="none" xmlns="http://www.w3.org/2000/svg">
<path d="M30.384 18H28.278V5.994H36.504V7.848H30.384V10.962H36.378V12.816H30.384V18ZM39.2674 8.244C38.9554 8.244 38.6794 8.13 38.4394 7.902C38.2114 7.674 38.0974 7.398 38.0974 7.074C38.0974 6.75 38.2114 6.474 38.4394 6.246C38.6794 6.018 38.9554 5.904 39.2674 5.904C39.5914 5.904 39.8674 6.018 40.0954 6.246C40.3234 6.474 40.4374 6.75 40.4374 7.074C40.4374 7.398 40.3234 7.674 40.0954 7.902C39.8674 8.13 39.5914 8.244 39.2674 8.244ZM40.2214 18H38.3314V9.306H40.2214V18ZM44.5632 18H42.6732V9.306H44.5632V10.584C44.8992 10.152 45.3192 9.798 45.8232 9.522C46.3272 9.246 46.8492 9.108 47.3892 9.108V10.98C47.2212 10.944 47.0232 10.926 46.7952 10.926C46.3992 10.926 45.9732 11.046 45.5172 11.286C45.0732 11.514 44.7552 11.778 44.5632 12.078V18ZM52.9275 18.216C51.6075 18.216 50.5155 17.796 49.6515 16.956C48.7995 16.104 48.3735 15 48.3735 13.644C48.3735 12.372 48.7875 11.298 49.6155 10.422C50.4555 9.534 51.5115 9.09 52.7835 9.09C54.0675 9.09 55.0995 9.534 55.8795 10.422C56.6715 11.31 57.0675 12.444 57.0675 13.824V14.274H50.3535C50.4255 14.958 50.7075 15.528 51.1995 15.984C51.6915 16.44 52.3335 16.668 53.1255 16.668C53.5695 16.668 54.0135 16.584 54.4575 16.416C54.9135 16.248 55.2915 16.014 55.5915 15.714L56.4555 16.956C55.5795 17.796 54.4035 18.216 52.9275 18.216ZM55.2315 12.942C55.2075 12.342 54.9855 11.808 54.5655 11.34C54.1575 10.872 53.5635 10.638 52.7835 10.638C52.0395 10.638 51.4575 10.872 51.0375 11.34C50.6175 11.796 50.3835 12.33 50.3355 12.942H55.2315ZM61.273 18H59.383V10.962H57.943V9.306H59.383V8.82C59.383 7.884 59.629 7.152 60.121 6.624C60.625 6.084 61.297 5.814 62.137 5.814C63.037 5.814 63.733 6.066 64.225 6.57L63.487 7.74C63.211 7.488 62.875 7.362 62.479 7.362C62.107 7.362 61.813 7.488 61.597 7.74C61.381 7.98 61.273 8.34 61.273 8.82V9.306H63.037V10.962H61.273V18ZM68.3941 18.216C67.0501 18.216 65.9701 17.778 65.1541 16.902C64.3381 16.014 63.9301 14.928 63.9301 13.644C63.9301 12.36 64.3381 11.28 65.1541 10.404C65.9701 9.528 67.0501 9.09 68.3941 9.09C69.7501 9.09 70.8361 9.528 71.6521 10.404C72.4681 11.28 72.8761 12.36 72.8761 13.644C72.8761 14.94 72.4681 16.026 71.6521 16.902C70.8361 17.778 69.7501 18.216 68.3941 18.216ZM68.3941 16.542C69.1741 16.542 69.7861 16.266 70.2301 15.714C70.6861 15.15 70.9141 14.46 70.9141 13.644C70.9141 12.84 70.6861 12.162 70.2301 11.61C69.7861 11.046 69.1741 10.764 68.3941 10.764C67.6261 10.764 67.0141 11.046 66.5581 11.61C66.1141 12.162 65.8921 12.84 65.8921 13.644C65.8921 14.46 66.1141 15.15 66.5581 15.714C67.0141 16.266 67.6261 16.542 68.3941 16.542ZM81.7696 18H79.6456L77.3956 14.796L75.1276 18H73.0216L76.2076 13.536L73.2016 9.306H75.3256L77.3956 12.258L79.4476 9.306H81.5716L78.5656 13.536L81.7696 18Z" fill="#2A334F"/>
<path d="M18.7719 2.22795C18.2219 2.9072 17.964 4.42871 18.5226 5.97738C19.0812 7.52606 19.9406 7.19097 20.4734 8.76682C21.1781 10.8498 20.8515 13.6483 20.8515 13.6483C20.8515 13.6483 21.7023 16.2385 22.2953 13.4853C23.6101 8.31399 18.7719 3.50493 18.7719 2.22795V2.22795Z" fill="url(#paint0_radial)"/>
<path d="M12.0345 23.7012C17.6978 23.7012 22.2782 18.8468 22.2782 12.8513C22.2782 6.85588 17.6892 2.01059 12.0345 2.01059C6.3798 2.01059 1.79933 6.86493 1.79933 12.8513C1.79073 18.8468 6.3798 23.7012 12.0345 23.7012Z" fill="url(#paint1_radial)"/>
<path d="M19.7081 19.5442C19.4847 19.7072 19.2526 19.8521 19.012 19.9879C19.33 19.4898 19.6307 18.9826 19.8972 18.4574C20.112 18.2038 20.3182 17.9592 20.4815 17.6875C20.5589 17.5517 20.6534 17.3977 20.7479 17.2075C21.3237 16.1117 21.9597 14.3457 21.9768 12.5343V12.3985C21.9768 11.9457 21.9339 11.4838 21.8479 11.04C21.8565 11.0762 21.8565 11.1125 21.8651 11.1487C21.8565 11.1215 21.8565 11.0943 21.8479 11.0672C21.8565 11.1125 21.8651 11.1668 21.8737 11.2121C21.994 12.2626 21.9081 13.286 21.487 14.0468C21.4784 14.0558 21.4698 14.0649 21.4698 14.083C21.6847 12.9328 21.762 11.6649 21.5214 10.397C21.5214 10.397 21.4268 9.78113 20.705 7.90641C20.2925 6.82868 19.5534 5.94113 18.9089 5.29811C18.3417 4.55547 17.8175 4.05736 17.5339 3.74037C16.9409 3.07924 16.6917 2.58113 16.5886 2.26415C16.5026 2.21886 15.3597 1.05056 15.2737 1.00528C14.7753 1.82037 13.2198 4.35622 13.9589 6.72C14.294 7.79773 15.1448 8.9117 16.0386 9.5366C16.0815 9.58189 16.5714 10.1434 16.8034 11.4113C17.044 12.7245 16.9151 13.7389 16.4253 15.2513C15.8409 16.5736 14.3456 17.8868 12.9448 18.0226C9.95419 18.3125 8.85419 16.4377 8.85419 16.4377C9.91981 16.8906 11.1057 16.7909 11.8276 16.3291C12.5495 15.8581 12.9878 15.5049 13.3487 15.6408C13.7011 15.7766 13.9761 15.3781 13.7268 14.9615C13.3315 14.3185 12.6097 13.9925 11.8964 14.1192C11.1745 14.246 10.5042 14.8528 9.55887 14.2641C9.49872 14.2279 9.43856 14.1826 9.37841 14.1374C9.31825 14.0921 9.58466 14.2008 9.51591 14.1555C9.33544 14.0468 9.00028 13.8204 8.92294 13.7389C8.90575 13.7208 9.06903 13.7932 9.05184 13.7751C8.16669 13.0053 8.27841 12.48 8.30419 12.154C8.32997 11.8913 8.48466 11.5562 8.75966 11.4204C8.88856 11.4928 8.9745 11.5562 8.9745 11.5562C8.9745 11.5562 8.91434 11.4385 8.88856 11.3751C8.89716 11.366 8.90575 11.3751 8.92294 11.366C9.03466 11.4204 9.26669 11.5653 9.39559 11.6468C9.55887 11.7645 9.61044 11.8732 9.61044 11.8732C9.61044 11.8732 9.65341 11.846 9.61903 11.7464C9.61044 11.7011 9.55887 11.5653 9.39559 11.4294H9.40419C9.49872 11.4838 9.59325 11.5562 9.67919 11.6287C9.72216 11.4566 9.80809 11.2755 9.79091 10.9494C9.78231 10.723 9.78231 10.6596 9.74794 10.5691C9.71356 10.4966 9.76512 10.4604 9.82528 10.5419C9.81669 10.4785 9.7995 10.4151 9.77372 10.3608V10.3517C9.85106 10.08 11.3464 9.36453 11.4581 9.28302C11.6386 9.14717 11.7847 8.97509 11.8964 8.77585C11.9823 8.64 12.0425 8.44075 12.0597 8.14188C12.0682 7.92453 11.9737 7.77962 10.4526 7.6166C10.0401 7.57132 9.79091 7.25434 9.65341 6.96453C9.62762 6.90113 9.60184 6.84679 9.57606 6.78339C9.55028 6.72 9.53309 6.64754 9.51591 6.57509C9.76512 5.82339 10.1776 5.18943 10.7964 4.70943C10.8307 4.6732 10.6589 4.71849 10.6932 4.68226C10.7362 4.64603 10.9854 4.53736 11.037 4.51019C11.0972 4.48302 10.7878 4.33811 10.5128 4.37434C10.2378 4.41056 10.1776 4.44679 10.0229 4.51019C10.0831 4.44679 10.2807 4.35622 10.2378 4.36528C9.937 4.41056 9.56747 4.60075 9.2495 4.80905C9.2495 4.77283 9.25809 4.7366 9.26669 4.70037C9.12059 4.76377 8.75106 5.03547 8.64794 5.26188C8.65653 5.2166 8.65653 5.17132 8.65653 5.12603C8.54481 5.22566 8.44169 5.33434 8.35575 5.46113L8.30419 5.47924C7.44481 5.11698 6.67997 5.08981 6.04403 5.25283C5.90653 5.10792 5.83778 5.2166 5.51122 4.47396C5.48544 4.42868 5.52841 4.51924 5.51122 4.47396C5.45966 4.32905 5.54559 4.66415 5.51122 4.47396C4.97841 4.92679 4.27372 5.43396 3.92997 5.78717C3.92997 5.80528 4.32528 5.66943 3.92997 5.78717C3.79247 5.83245 3.80106 5.91396 3.78387 6.70188C3.77528 6.76528 3.78387 6.82868 3.77528 6.88302C3.50028 7.24528 3.31981 7.55321 3.25106 7.71622C2.89872 8.35019 2.512 9.34641 2.14247 10.9132C2.30575 10.4875 2.50341 10.08 2.73544 9.69056C2.42606 10.5238 2.12528 11.837 2.06512 13.8475C2.14247 13.4309 2.237 13.0234 2.35731 12.6158C2.27997 14.2913 2.55497 15.9577 3.15653 17.5064C3.37137 18.0589 3.72372 18.9011 4.33387 19.8249C6.24169 21.9351 8.92294 23.2483 11.8964 23.2483C14.9987 23.2483 17.7917 21.8174 19.7081 19.5442V19.5442Z" fill="url(#paint2_linear)"/>
<path d="M17.4055 21.0747C21.1609 20.6129 22.8281 16.5374 20.6883 16.4559C18.7633 16.3925 15.6266 21.2921 17.4055 21.0747V21.0747Z" fill="url(#paint3_radial)"/>
<path d="M20.9634 15.6227C23.5501 14.0378 22.8712 10.6144 22.8712 10.6144C22.8712 10.6144 21.8743 11.837 21.1954 13.7842C20.5337 15.7133 19.4079 16.5827 20.9634 15.6227Z" fill="url(#paint4_radial)"/>
<path d="M12.756 23.1033C16.3653 24.3169 19.4591 21.3192 17.5513 20.323C15.8153 19.4264 11.0458 22.5328 12.756 23.1033Z" fill="url(#paint5_radial)"/>
<path d="M21.2388 17.0807C21.3247 16.9539 21.445 16.5373 21.5482 16.3471C22.1841 15.2603 22.1927 14.4 22.1927 14.3818C22.5794 12.3622 22.545 11.529 22.3044 10.0075C22.1153 8.77581 21.2818 7.00977 20.5599 6.1675C19.8208 5.28901 20.3364 5.57882 19.6232 4.93581C18.9958 4.20222 18.3771 3.46864 18.0505 3.17882C15.6443 1.05958 15.6958 0.60675 15.7474 0.534297L15.713 0.570523C15.6872 0.452787 15.6614 0.353165 15.6614 0.353165C15.6614 0.353165 14.338 1.72977 14.063 4.0392C13.8825 5.5426 14.4153 7.11845 15.1974 8.12373C15.6013 8.64901 16.0568 9.11996 16.5552 9.53656C17.1396 10.4241 17.4661 11.52 17.4661 12.6973C17.4661 15.6498 15.1974 18.0317 12.3958 18.0317C12.0177 18.0317 11.631 17.9864 11.2614 17.8958C9.938 17.6332 9.18175 16.9267 8.79503 16.4467C8.58019 16.1751 8.48566 15.9758 8.48566 15.9758C9.6716 16.4196 10.9778 16.329 11.7771 15.8671C12.5763 15.3962 13.0661 15.052 13.4614 15.1879C13.8482 15.3237 14.1575 14.9252 13.8825 14.5177C13.6075 14.1101 12.9028 13.5215 11.8544 13.6845C11.0552 13.8113 10.3161 14.409 9.26769 13.8294C9.19894 13.7932 9.13019 13.7479 9.07003 13.7117C9.00128 13.6664 9.29347 13.7751 9.22472 13.7298C9.01847 13.6211 8.65753 13.3947 8.563 13.3132C8.54581 13.2951 8.71769 13.3675 8.70909 13.3494C7.72941 12.5886 7.84972 12.0724 7.8755 11.7464C7.90128 11.4837 8.08175 11.1577 8.38253 11.0218C8.52863 11.0943 8.61456 11.1577 8.61456 11.1577C8.61456 11.1577 8.55441 11.04 8.52003 10.9766C8.52863 10.9675 8.54581 10.9766 8.55441 10.9675C8.67472 11.0218 8.94113 11.1577 9.07863 11.2483C9.2591 11.366 9.31925 11.4747 9.31925 11.4747C9.31925 11.4747 9.37081 11.4475 9.32785 11.3479C9.31066 11.3026 9.2591 11.1667 9.07863 11.0309H9.08722C9.19034 11.0852 9.29347 11.1577 9.388 11.2301C9.43956 11.0581 9.5255 10.8769 9.50831 10.5509C9.49972 10.3245 9.49972 10.2611 9.45675 10.1796C9.42238 10.1071 9.47394 10.0709 9.54269 10.1524C9.5341 10.089 9.50831 10.0347 9.48253 9.97128V9.96222C9.56847 9.69052 11.2271 8.98411 11.3474 8.9026C11.545 8.77581 11.7083 8.60373 11.8372 8.40449C11.9318 8.26864 12.0005 8.06939 12.0177 7.77052C12.0263 7.63467 11.9833 7.53505 11.545 7.42637C11.2786 7.36298 10.8747 7.30864 10.2388 7.24524C9.78331 7.19996 9.50831 6.89203 9.35363 6.60222C9.32784 6.53882 9.29347 6.48448 9.26769 6.43015C9.24191 6.36675 9.21613 6.2943 9.19894 6.2309C9.47394 5.47015 9.97238 4.82713 10.6169 4.38335C10.6513 4.34713 10.4708 4.39241 10.5052 4.35618C10.5482 4.31996 10.8318 4.21128 10.8833 4.18411C10.9521 4.15694 10.6083 4.02109 10.2989 4.04826C9.98956 4.08449 9.92941 4.11165 9.75753 4.18411C9.82628 4.12071 10.0411 4.0392 9.98956 4.0392C9.68019 4.07543 9.26769 4.25656 8.91534 4.46486C8.91534 4.42864 8.92394 4.39241 8.93253 4.35618C8.76925 4.41958 8.36535 4.69128 8.24503 4.91769C8.25363 4.87241 8.25363 4.82713 8.25363 4.7909C8.13331 4.89052 8.013 4.9992 7.91847 5.12599L7.90988 5.13505C6.95597 4.77279 6.11378 4.74562 5.40909 4.90864C5.25441 4.76373 5.00519 4.53732 4.65284 3.80373C4.62706 3.75845 4.61847 3.8943 4.60128 3.84901C4.46378 3.51392 4.37784 2.96147 4.39503 2.58109C4.39503 2.58109 4.11144 2.71694 3.87941 3.2875C3.83644 3.38713 3.81066 3.45052 3.77628 3.50486C3.75909 3.52298 3.80206 3.31467 3.80206 3.33279C3.75909 3.40524 3.65597 3.50486 3.613 3.64071C3.57863 3.74033 3.53566 3.79467 3.50988 3.91241L3.50128 3.92147C3.50128 3.88524 3.50988 3.77656 3.50128 3.79467C3.38956 4.03015 3.29503 4.27467 3.21769 4.5192C3.08878 4.95392 2.94269 5.55165 2.91691 6.33052C2.90831 6.38486 2.91691 6.45732 2.90831 6.51165C2.60753 6.87392 2.40128 7.18184 2.32394 7.33581C1.93722 7.96977 1.50753 8.94788 1.09503 10.5056C1.2755 10.08 1.49894 9.67241 1.75675 9.29203C1.413 10.1162 1.07784 11.4203 1.00909 13.4128C1.09503 12.9962 1.19816 12.5886 1.32706 12.1901C1.26691 13.5215 1.413 15.1788 2.21222 17.0445C2.68488 18.1403 3.77628 20.3683 6.44894 22.1071C6.44894 22.1071 7.35988 22.8226 8.91534 23.3569C9.02706 23.4022 9.14738 23.4475 9.26769 23.4837C9.23331 23.4656 9.19035 23.4475 9.15597 23.4384C10.1958 23.7645 11.27 23.9366 12.3614 23.9366C16.4005 23.9366 17.595 22.2249 17.595 22.2249L17.5864 22.2339C17.6466 22.1796 17.6982 22.1162 17.7497 22.0618C17.1138 22.6958 15.6528 22.7411 15.1114 22.6958C16.0396 22.406 16.6497 22.1615 17.8357 21.6905C17.9732 21.6362 18.1193 21.5728 18.2653 21.5003L18.3083 21.4732C18.3341 21.4551 18.3685 21.446 18.3943 21.4279C18.97 21.1381 19.52 20.7849 20.0185 20.3592C21.213 19.3539 21.4708 18.3758 21.6083 17.7328C21.5911 17.7962 21.531 17.9411 21.488 18.0317C21.1786 18.72 20.4997 19.1547 19.7607 19.5169C20.113 19.0279 20.4396 18.5207 20.7403 17.9954C20.981 17.7418 21.0497 17.3434 21.2388 17.0807V17.0807Z" fill="url(#paint6_radial)"/>
<path d="M19.7861 19.4808C20.2759 18.9192 20.7056 18.2672 21.0408 17.5336C21.8916 15.6498 23.2064 12.5072 22.1752 9.23774C21.3588 6.64755 20.233 5.23472 18.8064 3.84906C16.4861 1.60302 15.8416 0.597736 15.8416 0C15.8416 0 13.1603 3.14264 14.3205 6.43019C15.4806 9.71774 17.8611 9.59094 19.4338 13.0143C21.29 17.0445 17.9384 21.446 15.1627 22.6777C15.3345 22.6415 21.3244 21.2106 21.6424 17.597C21.6252 17.6604 21.4877 18.6657 19.7861 19.4808V19.4808Z" fill="url(#paint7_radial)"/>
<path d="M12.0174 7.77059C12.026 7.55323 11.9229 7.41738 10.2471 7.24531C9.55961 7.18191 9.29321 6.51172 9.21586 6.22191C8.97524 6.8921 8.87211 7.59851 8.92368 8.44983C8.95805 9.01134 9.31899 9.60908 9.48227 9.95323C9.48227 9.95323 9.51665 9.89889 9.53383 9.88078C9.8518 9.52757 11.1924 8.99323 11.3213 8.92078C11.4674 8.83021 12.0002 8.42266 12.0174 7.77059V7.77059Z" fill="url(#paint8_linear)"/>
<path d="M4.65206 3.80376C4.62628 3.75847 4.61769 3.89432 4.6005 3.84904C4.463 3.51395 4.37706 2.97055 4.40285 2.58112C4.40285 2.58112 4.11925 2.71696 3.88722 3.28753C3.84425 3.38715 3.81847 3.45055 3.7841 3.50489C3.76691 3.523 3.80988 3.3147 3.80988 3.33281C3.76691 3.40527 3.66378 3.50489 3.62081 3.63168C3.58644 3.7313 3.54347 3.7947 3.51769 3.92149C3.5091 3.95772 3.52628 3.76753 3.51769 3.7947C2.96769 4.90866 2.86456 6.59319 2.92472 6.52074C4.09347 5.20753 5.4255 4.89961 5.4255 4.89961C5.26222 4.79093 4.95285 4.46489 4.65206 3.80376Z" fill="url(#paint9_linear)"/>
<path d="M9.06967 17.5155C7.46263 16.7909 5.63216 15.7675 5.70091 13.4491C5.79545 10.397 8.40795 10.9947 8.40795 10.9947C8.31341 11.0219 8.04701 11.2211 7.95248 11.4294C7.85795 11.6921 7.67748 12.2898 8.21888 12.9147C9.07826 13.8928 6.45717 15.2332 10.4962 17.7691C10.5994 17.8234 9.55092 17.7328 9.06967 17.5155V17.5155Z" fill="url(#paint10_linear)"/>
<path d="M8.50233 15.994C9.6453 16.4106 10.9687 16.3381 11.768 15.8762C12.3008 15.5593 12.9883 15.0612 13.4008 15.1879C13.0398 15.034 12.7648 14.9615 12.4297 14.9525C12.3695 14.9525 12.3094 14.9525 12.2492 14.9434C12.1289 14.9434 12.0086 14.9525 11.8883 14.9615C11.682 14.9796 11.4586 15.1155 11.2523 15.0974C11.2437 15.0974 11.45 15.0068 11.4328 15.0068C11.3211 15.034 11.2008 15.034 11.0805 15.0521C11.0031 15.0612 10.9344 15.0702 10.8484 15.0793C8.46796 15.2876 6.46561 13.7208 6.46561 13.7208C6.29374 14.3185 7.23046 15.523 8.50233 15.994Z" fill="url(#paint11_linear)"/>
<path d="M19.7777 19.4989C22.184 17.0083 23.3957 13.9925 22.8801 10.5962C22.8801 10.5962 23.0863 12.3351 22.3043 14.1102C22.6824 12.3713 22.7254 10.2159 21.7285 7.97888C20.4051 4.99926 18.2223 3.42341 17.3887 2.77134C16.1254 1.77511 15.6012 0.769825 15.5926 0.561523C15.2145 1.37662 14.0715 4.16605 15.4723 6.56605C16.7785 8.82115 18.841 9.48228 20.2762 11.5472C22.9402 15.36 19.7777 19.4989 19.7777 19.4989Z" fill="url(#paint12_linear)"/>
<path d="M19.4339 13.0234C18.5917 11.1939 17.5432 10.397 16.555 9.53658C16.6667 9.70865 16.7011 9.76299 16.7612 9.88073C17.6378 10.8588 18.9182 13.2498 17.9901 16.2566C16.2284 21.9079 9.19872 19.2453 8.45966 18.5026C8.76044 21.772 13.9511 23.3388 17.337 21.2196C19.2534 19.2815 20.8089 16.0211 19.4339 13.0234V13.0234Z" fill="url(#paint13_linear)"/>
<defs>
<radialGradient id="paint0_radial" cx="0" cy="0" r="1" gradientUnits="userSpaceOnUse" gradientTransform="translate(22.5911 7.39322) rotate(2.3819) scale(7.91461 12.2919)">
<stop offset="0.1" stop-color="#FFEA00"/>
<stop offset="0.17" stop-color="#FFDE00"/>
<stop offset="0.28" stop-color="#FFBF00"/>
<stop offset="0.43" stop-color="#FF8E00"/>
<stop offset="0.77" stop-color="#FF272D"/>
<stop offset="0.87" stop-color="#E0255A"/>
<stop offset="0.95" stop-color="#CC2477"/>
<stop offset="1" stop-color="#C42482"/>
</radialGradient>
<radialGradient id="paint1_radial" cx="0" cy="0" r="1" gradientUnits="userSpaceOnUse" gradientTransform="translate(15.404 3.70198) scale(22.4588 23.6684)">
<stop stop-color="#00CCDA"/>
<stop offset="0.22" stop-color="#0083FF"/>
<stop offset="0.26" stop-color="#007AF9"/>
<stop offset="0.33" stop-color="#005FE7"/>
<stop offset="0.44" stop-color="#2639AD"/>
<stop offset="0.52" stop-color="#401E84"/>
<stop offset="0.57" stop-color="#4A1475"/>
</radialGradient>
<linearGradient id="paint2_linear" x1="13.4813" y1="17.7316" x2="8.62088" y2="2.64488" gradientUnits="userSpaceOnUse">
<stop stop-color="#000F43" stop-opacity="0.4"/>
<stop offset="0.48" stop-color="#001962" stop-opacity="0.17"/>
<stop offset="1" stop-color="#002079" stop-opacity="0"/>
</linearGradient>
<radialGradient id="paint3_radial" cx="0" cy="0" r="1" gradientUnits="userSpaceOnUse" gradientTransform="translate(23.2841 15.9231) rotate(5.91787) scale(7.55385 7.95226)">
<stop stop-color="#FFEA00"/>
<stop offset="0.5" stop-color="#FF272D"/>
<stop offset="1" stop-color="#C42482"/>
</radialGradient>
<radialGradient id="paint4_radial" cx="0" cy="0" r="1" gradientUnits="userSpaceOnUse" gradientTransform="translate(23.3129 8.26014) rotate(5.91788) scale(12.6142 13.2795)">
<stop stop-color="#FFE900"/>
<stop offset="0.16" stop-color="#FFAF0E"/>
<stop offset="0.32" stop-color="#FF7A1B"/>
<stop offset="0.47" stop-color="#FF4E26"/>
<stop offset="0.62" stop-color="#FF2C2E"/>
<stop offset="0.76" stop-color="#FF1434"/>
<stop offset="0.89" stop-color="#FF0538"/>
<stop offset="1" stop-color="#FF0039"/>
</radialGradient>
<radialGradient id="paint5_radial" cx="0" cy="0" r="1" gradientUnits="userSpaceOnUse" gradientTransform="translate(23.9433 20.7013) rotate(5.91788) scale(11.5749 12.1853)">
<stop stop-color="#FF272D"/>
<stop offset="0.5" stop-color="#C42482"/>
<stop offset="0.99" stop-color="#620700"/>
</radialGradient>
<radialGradient id="paint6_radial" cx="0" cy="0" r="1" gradientUnits="userSpaceOnUse" gradientTransform="translate(17.5046 9.58239) scale(18.05 19.0222)">
<stop offset="0.16" stop-color="#FFEA00"/>
<stop offset="0.23" stop-color="#FFDE00"/>
<stop offset="0.37" stop-color="#FFBF00"/>
<stop offset="0.54" stop-color="#FF8E00"/>
<stop offset="0.76" stop-color="#FF272D"/>
<stop offset="0.8" stop-color="#F92433"/>
<stop offset="0.84" stop-color="#E91C45"/>
<stop offset="0.89" stop-color="#CF0E62"/>
<stop offset="0.94" stop-color="#B5007F"/>
</radialGradient>
<radialGradient id="paint7_radial" cx="0" cy="0" r="1" gradientUnits="userSpaceOnUse" gradientTransform="translate(16.4693 0.760563) scale(20.5716 21.6796)">
<stop offset="0.28" stop-color="#FFEA00"/>
<stop offset="0.4" stop-color="#FFDD00"/>
<stop offset="0.63" stop-color="#FFBA00"/>
<stop offset="0.86" stop-color="#FF9100"/>
<stop offset="0.93" stop-color="#FF6711"/>
<stop offset="0.99" stop-color="#FF4A1D"/>
</radialGradient>
<linearGradient id="paint8_linear" x1="4.42878" y1="8.87947" x2="13.3095" y2="7.59262" gradientUnits="userSpaceOnUse">
<stop stop-color="#C42482" stop-opacity="0.5"/>
<stop offset="0.47" stop-color="#FF272D" stop-opacity="0.5"/>
<stop offset="0.49" stop-color="#FF2C2C" stop-opacity="0.51"/>
<stop offset="0.68" stop-color="#FF7A1A" stop-opacity="0.72"/>
<stop offset="0.83" stop-color="#FFB20D" stop-opacity="0.87"/>
<stop offset="0.94" stop-color="#FFD605" stop-opacity="0.96"/>
<stop offset="1" stop-color="#FFE302"/>
</linearGradient>
<linearGradient id="paint9_linear" x1="4.36153" y1="6.43072" x2="3.34348" y2="2.95859" gradientUnits="userSpaceOnUse">
<stop stop-color="#891551" stop-opacity="0.6"/>
<stop offset="1" stop-color="#C42482" stop-opacity="0"/>
</linearGradient>
<linearGradient id="paint10_linear" x1="6.04863" y1="11.3486" x2="8.08609" y2="14.0495" gradientUnits="userSpaceOnUse">
<stop offset="0.01" stop-color="#891551" stop-opacity="0.5"/>
<stop offset="0.48" stop-color="#FF272D" stop-opacity="0.5"/>
<stop offset="1" stop-color="#FF272D" stop-opacity="0"/>
</linearGradient>
<linearGradient id="paint11_linear" x1="9.75746" y1="16.2269" x2="9.9507" y2="14.4287" gradientUnits="userSpaceOnUse">
<stop stop-color="#C42482"/>
<stop offset="0.08" stop-color="#C42482" stop-opacity="0.81"/>
<stop offset="0.21" stop-color="#C42482" stop-opacity="0.57"/>
<stop offset="0.33" stop-color="#C42482" stop-opacity="0.36"/>
<stop offset="0.45" stop-color="#C42482" stop-opacity="0.2"/>
<stop offset="0.56" stop-color="#C42482" stop-opacity="0.09"/>
<stop offset="0.67" stop-color="#C42482" stop-opacity="0.02"/>
<stop offset="0.77" stop-color="#C42482" stop-opacity="0"/>
</linearGradient>
<linearGradient id="paint12_linear" x1="15.3168" y1="0.879772" x2="23.0087" y2="17.2007" gradientUnits="userSpaceOnUse">
<stop stop-color="#FFF14F"/>
<stop offset="0.27" stop-color="#FFEE4C"/>
<stop offset="0.45" stop-color="#FFE643"/>
<stop offset="0.61" stop-color="#FFD834"/>
<stop offset="0.76" stop-color="#FFC41E"/>
<stop offset="0.89" stop-color="#FFAB02"/>
<stop offset="0.9" stop-color="#FFA900"/>
<stop offset="0.95" stop-color="#FFA000"/>
<stop offset="1" stop-color="#FF9100"/>
</linearGradient>
<linearGradient id="paint13_linear" x1="16.7172" y1="10.4399" x2="13.056" y2="19.7682" gradientUnits="userSpaceOnUse">
<stop stop-color="#FF8E00"/>
<stop offset="0.04" stop-color="#FF8E00" stop-opacity="0.86"/>
<stop offset="0.08" stop-color="#FF8E00" stop-opacity="0.73"/>
<stop offset="0.13" stop-color="#FF8E00" stop-opacity="0.63"/>
<stop offset="0.18" stop-color="#FF8E00" stop-opacity="0.56"/>
<stop offset="0.23" stop-color="#FF8E00" stop-opacity="0.51"/>
<stop offset="0.28" stop-color="#FF8E00" stop-opacity="0.5"/>
<stop offset="0.39" stop-color="#FF8E00" stop-opacity="0.48"/>
<stop offset="0.52" stop-color="#FF8E00" stop-opacity="0.42"/>
<stop offset="0.68" stop-color="#FF8E00" stop-opacity="0.31"/>
<stop offset="0.84" stop-color="#FF8E00" stop-opacity="0.17"/>
<stop offset="1" stop-color="#FF8E00" stop-opacity="0"/>
</linearGradient>
</defs>
</svg>
