<svg width="167" height="52" viewBox="0 0 167 52" fill="none" xmlns="http://www.w3.org/2000/svg">
<path d="M161.6 52H5.60039C2.74039 52 0.400391 49.66 0.400391 46.8V5.2C0.400391 2.34 2.74039 0 5.60039 0H161.6C164.46 0 166.8 2.34 166.8 5.2V46.8C166.8 49.66 164.46 52 161.6 52Z" fill="black"/>
<path fill-rule="evenodd" clip-rule="evenodd" d="M13.1401 25.48V11.83C13.1401 11.05 13.7901 10.4 14.4401 10.4C15.0901 10.4 15.3501 10.53 15.7401 10.79L40.8301 24.57C41.3501 24.83 41.6101 25.22 41.6101 25.61C41.6101 26 41.3501 26.39 40.8301 26.65L15.7401 40.43C15.4801 40.56 15.0901 40.82 14.4401 40.82C13.7901 40.82 13.1401 40.17 13.1401 39.39V25.48Z" fill="url(#paint0_linear)"/>
<path fill-rule="evenodd" clip-rule="evenodd" d="M29.3905 25.61L14.1805 10.4C14.3105 10.4 14.3105 10.4 14.4405 10.4C15.0905 10.4 15.3505 10.53 15.7405 10.79L34.2005 20.93L29.3905 25.61Z" fill="url(#paint1_linear)"/>
<path fill-rule="evenodd" clip-rule="evenodd" d="M34.0701 30.1599L29.3901 25.4799L34.2001 20.6699L40.8301 24.3099C41.3501 24.5699 41.6101 24.9599 41.6101 25.3499C41.6101 25.7399 41.3501 26.1299 40.8301 26.3899L34.0701 30.1599Z" fill="url(#paint2_linear)"/>
<path fill-rule="evenodd" clip-rule="evenodd" d="M14.3107 40.5601L29.3907 25.4801L34.0707 30.1601L15.7407 40.1701C15.3507 40.4301 15.0907 40.5601 14.3107 40.5601C14.4407 40.5601 14.4407 40.5601 14.3107 40.5601Z" fill="url(#paint3_linear)"/>
<path fill-rule="evenodd" clip-rule="evenodd" d="M92.8302 44.07C92.1802 43.55 91.6602 42.64 91.4002 42.12L93.4802 41.21C93.6102 41.47 93.8702 41.86 94.1302 42.25C94.6502 42.77 95.4302 43.29 96.2102 43.29C96.9902 43.29 97.9002 42.9 98.4202 42.25C98.8102 41.6 99.0702 40.95 99.0702 40.04V39.26C97.5102 41.21 94.2602 40.95 92.4402 38.87C90.4902 36.79 90.4902 33.28 92.4402 31.2C94.3902 29.25 97.2502 28.99 98.9402 30.81V29.9H101.15V39.65C101.15 42.12 100.24 43.55 99.0702 44.46C98.2902 45.11 97.1202 45.37 96.0802 45.37C94.9102 45.24 93.7402 44.85 92.8302 44.07ZM147.3 44.59L149.51 39.39L145.61 30.42H147.82L150.55 36.79L153.28 30.42H155.49L149.51 44.59H147.3ZM136.77 39.65C136.12 39 135.86 38.09 135.86 37.18C135.86 36.4 136.12 35.62 136.64 35.1C137.55 34.19 138.85 33.8 140.28 33.8C141.19 33.8 141.97 33.93 142.62 34.32C142.62 32.76 141.32 32.11 140.28 32.11C139.37 32.11 138.46 32.63 138.07 33.54L136.12 32.76C136.51 31.85 137.55 30.16 140.15 30.16C141.45 30.16 142.75 30.55 143.53 31.46C144.31 32.37 144.57 33.41 144.57 34.84V40.3H142.36V39.39C142.1 39.78 141.58 40.04 141.19 40.3C140.67 40.56 140.02 40.69 139.37 40.69C138.59 40.56 137.42 40.3 136.77 39.65ZM67.4802 34.97C67.4802 32.37 69.4302 29.51 72.9402 29.51C76.3202 29.51 78.4002 32.37 78.4002 34.97C78.4002 37.57 76.4502 40.43 72.9402 40.43C69.4302 40.43 67.4802 37.57 67.4802 34.97ZM79.1802 34.97C79.1802 32.37 81.1302 29.51 84.6402 29.51C88.0202 29.51 90.1002 32.37 90.1002 34.97C90.1002 37.57 88.1502 40.43 84.6402 40.43C81.2602 40.43 79.1802 37.57 79.1802 34.97ZM52.7902 37.83C49.5402 34.58 49.6702 29.25 52.9202 25.87C54.6102 24.18 56.6902 23.4 58.9002 23.4C60.9802 23.4 63.0602 24.18 64.6202 25.74L63.0602 27.43C60.7202 25.09 56.9502 25.22 54.7402 27.56C52.4002 30.03 52.4002 33.8 54.7402 36.27C57.0802 38.74 60.9802 38.87 63.3202 36.4C64.1002 35.62 64.3602 34.58 64.4902 33.54H59.0302V31.2H66.7002C66.8302 31.72 66.8302 32.37 66.8302 33.02C66.8302 34.97 66.0502 36.92 64.7502 38.22C63.3202 39.65 61.2402 40.43 59.1602 40.43C56.8202 40.3 54.4802 39.52 52.7902 37.83ZM107.78 38.74C105.83 36.66 105.83 33.15 107.78 30.94C109.73 28.86 112.98 28.86 114.8 30.94C115.45 31.59 115.84 32.5 116.23 33.41L109.08 36.4C109.47 37.31 110.38 38.09 111.68 38.09C112.85 38.09 113.63 37.7 114.41 36.53L116.36 37.83C116.1 38.09 115.84 38.35 115.71 38.61C113.5 40.82 109.73 40.82 107.78 38.74ZM121.3 40.3V25.87H125.98C128.71 25.87 130.92 27.82 130.92 30.16C130.92 32.5 128.97 34.45 126.5 34.45H123.64V40.17H121.3V40.3ZM132.22 40.3V25.87H134.43V40.3H132.22ZM102.84 40.04V23.92H105.18V40.04H102.84ZM142.49 36.01C141.97 35.62 141.19 35.49 140.41 35.49C138.85 35.49 137.94 36.27 137.94 37.18C137.94 38.09 138.85 38.61 139.76 38.61C141.06 38.61 142.49 37.57 142.49 36.01ZM75.9302 34.97C75.9302 33.41 74.8902 31.72 72.9402 31.72C70.9902 31.72 69.9502 33.41 69.9502 34.97C69.9502 36.53 70.9902 38.22 72.9402 38.22C74.7602 38.22 75.9302 36.53 75.9302 34.97ZM87.6302 34.97C87.6302 33.41 86.5902 31.72 84.6402 31.72C82.6902 31.72 81.6502 33.41 81.6502 34.97C81.6502 36.53 82.6902 38.22 84.6402 38.22C86.5902 38.22 87.6302 36.53 87.6302 34.97ZM99.2002 35.88C99.2002 35.75 99.2002 35.62 99.3302 35.49C99.3302 35.36 99.3302 35.1 99.3302 34.97C99.3302 34.84 99.3302 34.58 99.3302 34.45V34.32C99.3302 34.19 99.2002 33.93 99.2002 33.8C98.8102 32.5 97.6402 31.59 96.4702 31.59C94.9102 31.59 93.6102 33.15 93.6102 34.84C93.6102 36.66 94.9102 38.09 96.6002 38.09C97.6402 38.22 98.6802 37.31 99.2002 35.88ZM108.69 34.71L113.5 32.63C112.98 31.72 112.2 31.46 111.55 31.46C109.6 31.59 108.43 33.67 108.69 34.71ZM128.58 30.29C128.58 28.99 127.54 28.08 126.11 28.08H123.51V32.63H126.24C127.54 32.63 128.58 31.59 128.58 30.29Z" fill="white"/>
<path fill-rule="evenodd" clip-rule="evenodd" d="M148.991 41.9902H148.861V41.8602H148.991H148.861V41.9902H148.991Z" fill="white"/>
<path fill-rule="evenodd" clip-rule="evenodd" d="M149.25 41.9902C149.25 41.8602 149.25 41.8602 149.25 41.9902C149.12 41.8602 149.12 41.8602 149.25 41.9902C149.12 41.9902 149.12 41.9902 149.25 41.9902ZM149.25 41.8602C149.25 41.9902 149.25 41.9902 149.25 41.8602C149.25 41.9902 149.12 41.9902 149.25 41.8602C149.12 41.8602 149.25 41.8602 149.25 41.8602Z" fill="white"/>
<path fill-rule="evenodd" clip-rule="evenodd" d="M149.38 41.8602H149.25H149.38V41.9902V41.8602Z" fill="white"/>
<path d="M50.9702 13.1302C50.9702 10.7902 52.6602 9.36023 54.7402 9.36023C56.1702 9.36023 57.0802 10.0102 57.7302 10.9202L56.6902 11.5702C56.3002 11.0502 55.6502 10.6602 54.7402 10.6602C53.3102 10.6602 52.2702 11.7002 52.2702 13.2602C52.2702 14.8202 53.3102 15.8602 54.7402 15.8602C55.5202 15.8602 56.1702 15.4702 56.4302 15.2102V14.0402H54.3502V12.8702H57.8602V15.6002C57.2102 16.3802 56.1702 16.9002 54.8702 16.9002C52.6602 16.9002 50.9702 15.3402 50.9702 13.1302Z" fill="white"/>
<path d="M59.4203 16.7697V9.48975H64.3603V10.6597H60.5903V12.4797H64.2303V13.6497H60.5903V15.7297H64.3603V16.8997L59.4203 16.7697Z" fill="white"/>
<path d="M68.0002 16.7697V10.6597H65.7902V9.48975H71.5102V10.6597H69.3002V16.7697H68.0002Z" fill="white"/>
<path d="M75.9305 16.7697V9.48975H77.2305V16.7697H75.9305Z" fill="white"/>
<path d="M80.7405 16.7697V10.6597H78.5305V9.48975H84.2505V10.6597H82.0405V16.7697H80.7405Z" fill="white"/>
<path d="M88.4106 13.1302C88.4106 10.9202 89.9707 9.36023 92.1807 9.36023C94.3907 9.36023 95.9506 10.9202 95.9506 13.1302C95.9506 15.3402 94.3907 16.9002 92.1807 16.9002C89.9707 16.9002 88.4106 15.2102 88.4106 13.1302ZM94.5206 13.1302C94.5206 11.5702 93.6106 10.5302 92.0506 10.5302C90.6206 10.5302 89.5807 11.7002 89.5807 13.1302C89.5807 14.6902 90.4906 15.7302 92.0506 15.7302C93.6106 15.7302 94.5206 14.5602 94.5206 13.1302Z" fill="white"/>
<path d="M102.45 16.7697L98.6805 11.5697V16.7697H97.3805V9.48975H98.6805L102.45 14.5597V9.48975H103.75V16.7697H102.45Z" fill="white"/>
<defs>
<linearGradient id="paint0_linear" x1="21.5478" y1="8.5457" x2="28.8254" y2="38.4339" gradientUnits="userSpaceOnUse">
<stop stop-color="#006884"/>
<stop offset="1" stop-color="#8AD1D0"/>
</linearGradient>
<linearGradient id="paint1_linear" x1="12.6735" y1="12.797" x2="32.5062" y2="23.5187" gradientUnits="userSpaceOnUse">
<stop stop-color="#24BBB6"/>
<stop offset="1" stop-color="#DBE692"/>
</linearGradient>
<linearGradient id="paint2_linear" x1="35.4929" y1="30.706" x2="35.4929" y2="20.3731" gradientUnits="userSpaceOnUse">
<stop stop-color="#FCC072"/>
<stop offset="1" stop-color="#F58A5B"/>
</linearGradient>
<linearGradient id="paint3_linear" x1="16.5138" y1="43.2499" x2="32.181" y2="27.3052" gradientUnits="userSpaceOnUse">
<stop stop-color="#712B8F"/>
<stop offset="1" stop-color="#EA1D27"/>
</linearGradient>
</defs>
</svg>
