<svg width="40" height="40" viewBox="0 0 40 40" fill="none" xmlns="http://www.w3.org/2000/svg">
<path d="M37.5 0.625H30.1475C29.4325 0.625 28.7906 1.0225 28.4706 1.66125L27.7388 3.125H15C13.9663 3.125 13.125 3.96625 13.125 5V9.375H0.625V32.7588L7.24125 39.375H25.625V33.9587L31.875 25.625H28.75V20.625H37.5C38.5337 20.625 39.375 19.7838 39.375 18.75V2.5C39.375 1.46625 38.5337 0.625 37.5 0.625ZM15 4.375H28.5112L29.5887 2.22062C29.695 2.0075 29.9094 1.875 30.1475 1.875H37.5C37.8444 1.875 38.125 2.155 38.125 2.5V5.625H14.375V5C14.375 4.655 14.6556 4.375 15 4.375ZM6.875 37.2412L2.75875 33.125H6.875V37.2412ZM8.125 38.125V31.875H1.875V10.625H24.375V15.625H21.25V25.625H18.125L22.8125 31.875H9.375V36.875H23.125V32.2919L24.375 33.9587V38.125H8.125ZM21.875 33.125V35.625H10.625V33.125H21.875ZM29.375 26.875L25 32.7081L20.625 26.875H22.5V16.875H27.5V26.875H29.375ZM37.5 19.375H28.75V15.625H25.625V9.375H14.375V6.875H38.125V18.75C38.125 19.095 37.8444 19.375 37.5 19.375ZM36.875 4.375H35.625V3.125H36.875V4.375ZM34.375 4.375H33.125V3.125H34.375V4.375ZM31.875 4.375H30.625V3.125H31.875V4.375ZM13.125 11.875H3.125V20.625H13.125V11.875ZM11.875 19.375H4.375V13.125H11.875V19.375ZM23.125 13.125H14.375V11.875H23.125V13.125ZM20 15.625H14.375V14.375H20V15.625ZM20 18.125H14.375V16.875H20V18.125ZM20 20.625H14.375V19.375H20V20.625ZM10 30.625H17.5V21.875H10V30.625ZM11.25 23.125H16.25V29.375H11.25V23.125ZM3.125 21.875H8.75V23.125H3.125V21.875ZM3.125 24.375H8.75V25.625H3.125V24.375ZM3.125 26.875H8.75V28.125H3.125V26.875ZM3.125 29.375H8.75V30.625H3.125V29.375Z" fill="#E34600"/>
</svg>
