<svg width="107" height="38" viewBox="0 0 107 38" fill="none" xmlns="http://www.w3.org/2000/svg">
<path d="M1 35.5047V8.5C1 7.94772 1.44772 7.5 2 7.5H81.0622C81.3413 7.5 81.6077 7.38336 81.797 7.17828L86.7652 1.79604C87.1612 1.36708 87.8388 1.36708 88.2348 1.79604L93.203 7.17828C93.3923 7.38336 93.6587 7.5 93.9378 7.5H105.5C106.052 7.5 106.5 7.94771 106.5 8.5V35.9953C106.5 36.5494 106.049 36.9979 105.495 36.9952L1.99526 36.5047C1.44483 36.5021 1 36.0552 1 35.5047Z" fill="white" stroke="#E9F3FF"/>
<path d="M8.147 26H6.86V22.953L4.011 18.663H5.485L7.509 21.809L9.511 18.663H10.985L8.147 22.953V26ZM12.7749 26.132C11.9536 26.132 11.2936 25.8643 10.7949 25.329C10.2962 24.7863 10.0469 24.1227 10.0469 23.338C10.0469 22.5533 10.2962 21.8933 10.7949 21.358C11.2936 20.8227 11.9536 20.555 12.7749 20.555C13.6036 20.555 14.2672 20.8227 14.7659 21.358C15.2646 21.8933 15.5139 22.5533 15.5139 23.338C15.5139 24.13 15.2646 24.7937 14.7659 25.329C14.2672 25.8643 13.6036 26.132 12.7749 26.132ZM12.7749 25.109C13.2516 25.109 13.6256 24.9403 13.8969 24.603C14.1756 24.2583 14.3149 23.8367 14.3149 23.338C14.3149 22.8467 14.1756 22.4323 13.8969 22.095C13.6256 21.7503 13.2516 21.578 12.7749 21.578C12.3056 21.578 11.9316 21.7503 11.6529 22.095C11.3816 22.4323 11.2459 22.8467 11.2459 23.338C11.2459 23.8367 11.3816 24.2583 11.6529 24.603C11.9316 24.9403 12.3056 25.109 12.7749 25.109ZM21.4236 26H20.2686V25.296C19.7699 25.8533 19.1429 26.132 18.3876 26.132C17.2509 26.132 16.6826 25.571 16.6826 24.449V20.687H17.8376V24.031C17.8376 24.4197 17.9292 24.6983 18.1126 24.867C18.2959 25.0283 18.5599 25.109 18.9046 25.109C19.1832 25.109 19.4436 25.043 19.6856 24.911C19.9276 24.779 20.1219 24.614 20.2686 24.416V20.687H21.4236V26ZM24.0788 26H22.9238V20.687H24.0788V21.468C24.2841 21.204 24.5408 20.9877 24.8488 20.819C25.1568 20.6503 25.4758 20.566 25.8058 20.566V21.71C25.7031 21.688 25.5821 21.677 25.4428 21.677C25.2008 21.677 24.9404 21.7503 24.6618 21.897C24.3904 22.0363 24.1961 22.1977 24.0788 22.381V26ZM30.8825 26H29.5955V18.663H30.8825V26ZM33.7291 26H32.4421V18.663H35.6651C36.4058 18.663 36.9888 18.883 37.4141 19.323C37.8468 19.763 38.0631 20.3093 38.0631 20.962C38.0631 21.6073 37.8468 22.1537 37.4141 22.601C36.9888 23.041 36.4058 23.261 35.6651 23.261H33.7291V26ZM35.4891 22.128C35.8558 22.128 36.1565 22.0217 36.3911 21.809C36.6258 21.5963 36.7431 21.314 36.7431 20.962C36.7431 20.61 36.6258 20.3277 36.3911 20.115C36.1565 19.9023 35.8558 19.796 35.4891 19.796H33.7291V22.128H35.4891ZM47.7677 26H46.5577L45.3257 22.106L44.0937 26H42.8837L41.2337 20.687H42.4327L43.5547 24.548L44.8197 20.687H45.8317L47.0967 24.548L48.2187 20.687H49.4177L47.7677 26ZM54.6197 26H53.4647V25.428C53.054 25.8973 52.482 26.132 51.7487 26.132C51.2647 26.132 50.8357 25.978 50.4617 25.67C50.0877 25.3547 49.9007 24.922 49.9007 24.372C49.9007 23.8073 50.084 23.3783 50.4507 23.085C50.8247 22.7917 51.2573 22.645 51.7487 22.645C52.504 22.645 53.076 22.8723 53.4647 23.327V22.535C53.4647 22.227 53.351 21.985 53.1237 21.809C52.8963 21.633 52.5957 21.545 52.2217 21.545C51.6277 21.545 51.1033 21.7687 50.6487 22.216L50.1757 21.413C50.777 20.841 51.5213 20.555 52.4087 20.555C53.0613 20.555 53.593 20.709 54.0037 21.017C54.4143 21.325 54.6197 21.8127 54.6197 22.48V26ZM52.1997 25.34C52.779 25.34 53.2007 25.1567 53.4647 24.79V23.987C53.2007 23.6203 52.779 23.437 52.1997 23.437C51.8697 23.437 51.5983 23.525 51.3857 23.701C51.173 23.877 51.0667 24.108 51.0667 24.394C51.0667 24.68 51.173 24.911 51.3857 25.087C51.5983 25.2557 51.8697 25.34 52.1997 25.34ZM57.9321 26.132C56.9788 26.132 56.2198 25.857 55.6551 25.307L56.1831 24.471C56.3811 24.6763 56.6488 24.8523 56.9861 24.999C57.3235 25.1457 57.6571 25.219 57.9871 25.219C58.3245 25.219 58.5811 25.153 58.7571 25.021C58.9405 24.889 59.0321 24.7167 59.0321 24.504C59.0321 24.3133 58.9221 24.1667 58.7021 24.064C58.4821 23.954 58.2145 23.8697 57.8991 23.811C57.5838 23.745 57.2685 23.668 56.9531 23.58C56.6378 23.4847 56.3701 23.3197 56.1501 23.085C55.9301 22.8503 55.8201 22.546 55.8201 22.172C55.8201 21.7173 56.0071 21.336 56.3811 21.028C56.7551 20.7127 57.2648 20.555 57.9101 20.555C58.7241 20.555 59.4135 20.8043 59.9781 21.303L59.4941 22.117C59.3255 21.9263 59.1018 21.7723 58.8231 21.655C58.5445 21.5377 58.2438 21.479 57.9211 21.479C57.6205 21.479 57.3785 21.5413 57.1951 21.666C57.0191 21.7833 56.9311 21.9373 56.9311 22.128C56.9311 22.2747 57.0081 22.3957 57.1621 22.491C57.3235 22.579 57.5215 22.645 57.7561 22.689C57.9981 22.733 58.2585 22.7953 58.5371 22.876C58.8158 22.9493 59.0725 23.0373 59.3071 23.14C59.5491 23.2427 59.7471 23.4113 59.9011 23.646C60.0625 23.8733 60.1431 24.152 60.1431 24.482C60.1431 24.966 59.9488 25.362 59.5601 25.67C59.1715 25.978 58.6288 26.132 57.9321 26.132ZM66.5508 26.132C65.7441 26.132 65.0841 25.8717 64.5708 25.351C64.0575 24.823 63.8008 24.152 63.8008 23.338C63.8008 22.5313 64.0575 21.8677 64.5708 21.347C65.0841 20.819 65.7441 20.555 66.5508 20.555C67.4381 20.555 68.1165 20.8703 68.5858 21.501L67.8268 22.205C67.5335 21.787 67.1265 21.578 66.6058 21.578C66.1218 21.578 65.7331 21.743 65.4398 22.073C65.1465 22.3957 64.9998 22.8173 64.9998 23.338C64.9998 23.8587 65.1465 24.284 65.4398 24.614C65.7331 24.944 66.1218 25.109 66.6058 25.109C67.1118 25.109 67.5188 24.9 67.8268 24.482L68.5858 25.186C68.1165 25.8167 67.4381 26.132 66.5508 26.132ZM71.9966 26.132C71.1753 26.132 70.5153 25.8643 70.0166 25.329C69.5179 24.7863 69.2686 24.1227 69.2686 23.338C69.2686 22.5533 69.5179 21.8933 70.0166 21.358C70.5153 20.8227 71.1753 20.555 71.9966 20.555C72.8253 20.555 73.4889 20.8227 73.9876 21.358C74.4863 21.8933 74.7356 22.5533 74.7356 23.338C74.7356 24.13 74.4863 24.7937 73.9876 25.329C73.4889 25.8643 72.8253 26.132 71.9966 26.132ZM71.9966 25.109C72.4733 25.109 72.8473 24.9403 73.1186 24.603C73.3973 24.2583 73.5366 23.8367 73.5366 23.338C73.5366 22.8467 73.3973 22.4323 73.1186 22.095C72.8473 21.7503 72.4733 21.578 71.9966 21.578C71.5273 21.578 71.1533 21.7503 70.8746 22.095C70.6033 22.4323 70.4676 22.8467 70.4676 23.338C70.4676 23.8367 70.6033 24.2583 70.8746 24.603C71.1533 24.9403 71.5273 25.109 71.9966 25.109ZM78.7643 26.132C78.0603 26.132 77.4919 25.8423 77.0593 25.263V28.024H75.9043V20.687H77.0593V21.413C77.4846 20.841 78.0529 20.555 78.7643 20.555C79.4609 20.555 80.0256 20.8043 80.4583 21.303C80.8983 21.8017 81.1183 22.48 81.1183 23.338C81.1183 24.196 80.8983 24.878 80.4583 25.384C80.0256 25.8827 79.4609 26.132 78.7643 26.132ZM78.4233 25.109C78.8779 25.109 79.2409 24.944 79.5123 24.614C79.7836 24.284 79.9193 23.8587 79.9193 23.338C79.9193 22.8173 79.7836 22.3957 79.5123 22.073C79.2409 21.743 78.8779 21.578 78.4233 21.578C78.1593 21.578 77.8989 21.6477 77.6423 21.787C77.3856 21.9263 77.1913 22.095 77.0593 22.293V24.394C77.1913 24.592 77.3856 24.7607 77.6423 24.9C77.8989 25.0393 78.1593 25.109 78.4233 25.109ZM85.1236 26.132C84.4196 26.132 83.8513 25.8423 83.4186 25.263V28.024H82.2636V20.687H83.4186V21.413C83.844 20.841 84.4123 20.555 85.1236 20.555C85.8203 20.555 86.385 20.8043 86.8176 21.303C87.2576 21.8017 87.4776 22.48 87.4776 23.338C87.4776 24.196 87.2576 24.878 86.8176 25.384C86.385 25.8827 85.8203 26.132 85.1236 26.132ZM84.7826 25.109C85.2373 25.109 85.6003 24.944 85.8716 24.614C86.143 24.284 86.2786 23.8587 86.2786 23.338C86.2786 22.8173 86.143 22.3957 85.8716 22.073C85.6003 21.743 85.2373 21.578 84.7826 21.578C84.5186 21.578 84.2583 21.6477 84.0016 21.787C83.745 21.9263 83.5506 22.095 83.4186 22.293V24.394C83.5506 24.592 83.745 24.7607 84.0016 24.9C84.2583 25.0393 84.5186 25.109 84.7826 25.109ZM89.195 20.038C89.0043 20.038 88.8357 19.9683 88.689 19.829C88.5497 19.6897 88.48 19.521 88.48 19.323C88.48 19.125 88.5497 18.9563 88.689 18.817C88.8357 18.6777 89.0043 18.608 89.195 18.608C89.393 18.608 89.5617 18.6777 89.701 18.817C89.8403 18.9563 89.91 19.125 89.91 19.323C89.91 19.521 89.8403 19.6897 89.701 19.829C89.5617 19.9683 89.393 20.038 89.195 20.038ZM89.778 26H88.623V20.687H89.778V26ZM93.7293 26.132C92.9227 26.132 92.2553 25.8753 91.7273 25.362C91.2067 24.8413 90.9463 24.1667 90.9463 23.338C90.9463 22.5607 91.1993 21.9043 91.7053 21.369C92.2187 20.8263 92.864 20.555 93.6413 20.555C94.426 20.555 95.0567 20.8263 95.5333 21.369C96.0173 21.9117 96.2593 22.6047 96.2593 23.448V23.723H92.1563C92.2003 24.141 92.3727 24.4893 92.6733 24.768C92.974 25.0467 93.3663 25.186 93.8503 25.186C94.1217 25.186 94.393 25.1347 94.6643 25.032C94.943 24.9293 95.174 24.7863 95.3573 24.603L95.8853 25.362C95.35 25.8753 94.6313 26.132 93.7293 26.132ZM95.1373 22.909C95.1227 22.5423 94.987 22.216 94.7303 21.93C94.481 21.644 94.118 21.501 93.6413 21.501C93.1867 21.501 92.831 21.644 92.5743 21.93C92.3177 22.2087 92.1747 22.535 92.1453 22.909H95.1373ZM102.294 26H101.139V25.274C100.699 25.846 100.131 26.132 99.4344 26.132C98.7377 26.132 98.1694 25.8827 97.7294 25.384C97.2894 24.8853 97.0694 24.207 97.0694 23.349C97.0694 22.4983 97.2894 21.82 97.7294 21.314C98.1694 20.808 98.7377 20.555 99.4344 20.555C100.131 20.555 100.699 20.8447 101.139 21.424V18.663H102.294V26ZM99.7644 25.109C100.036 25.109 100.3 25.043 100.556 24.911C100.813 24.779 101.007 24.6103 101.139 24.405V22.293C101.007 22.0877 100.813 21.919 100.556 21.787C100.3 21.6477 100.036 21.578 99.7644 21.578C99.3097 21.578 98.9467 21.743 98.6754 22.073C98.404 22.403 98.2684 22.8283 98.2684 23.349C98.2684 23.8697 98.404 24.295 98.6754 24.625C98.9467 24.9477 99.3097 25.109 99.7644 25.109Z" fill="#2A334F"/>
</svg>
