<svg width="300" height="70" viewBox="0 0 300 70" fill="none" xmlns="http://www.w3.org/2000/svg">
<rect width="300" height="70" rx="10" fill="#FF2D55"/>
<path d="M76.032 28H74.16V23.568L70.016 17.328H72.16L75.104 21.904L78.016 17.328H80.16L76.032 23.568V28ZM82.7635 28.192C81.5688 28.192 80.6088 27.8027 79.8835 27.024C79.1582 26.2347 78.7955 25.2693 78.7955 24.128C78.7955 22.9867 79.1582 22.0267 79.8835 21.248C80.6088 20.4693 81.5688 20.08 82.7635 20.08C83.9688 20.08 84.9342 20.4693 85.6595 21.248C86.3848 22.0267 86.7475 22.9867 86.7475 24.128C86.7475 25.28 86.3848 26.2453 85.6595 27.024C84.9342 27.8027 83.9688 28.192 82.7635 28.192ZM82.7635 26.704C83.4568 26.704 84.0008 26.4587 84.3955 25.968C84.8008 25.4667 85.0035 24.8533 85.0035 24.128C85.0035 23.4133 84.8008 22.8107 84.3955 22.32C84.0008 21.8187 83.4568 21.568 82.7635 21.568C82.0808 21.568 81.5368 21.8187 81.1315 22.32C80.7368 22.8107 80.5395 23.4133 80.5395 24.128C80.5395 24.8533 80.7368 25.4667 81.1315 25.968C81.5368 26.4587 82.0808 26.704 82.7635 26.704ZM95.3434 28H93.6634V26.976C92.938 27.7867 92.026 28.192 90.9274 28.192C89.274 28.192 88.4474 27.376 88.4474 25.744V20.272H90.1274V25.136C90.1274 25.7013 90.2607 26.1067 90.5274 26.352C90.794 26.5867 91.178 26.704 91.6794 26.704C92.0847 26.704 92.4634 26.608 92.8154 26.416C93.1674 26.224 93.45 25.984 93.6634 25.696V20.272H95.3434V28ZM99.2055 28H97.5255V20.272H99.2055V21.408C99.5042 21.024 99.8775 20.7093 100.326 20.464C100.774 20.2187 101.238 20.096 101.718 20.096V21.76C101.568 21.728 101.392 21.712 101.19 21.712C100.838 21.712 100.459 21.8187 100.054 22.032C99.6588 22.2347 99.3762 22.4693 99.2055 22.736V28ZM109.102 28H107.23V17.328H109.102V28ZM113.242 28H111.37V17.328H116.058C117.136 17.328 117.984 17.648 118.602 18.288C119.232 18.928 119.546 19.7227 119.546 20.672C119.546 21.6107 119.232 22.4053 118.602 23.056C117.984 23.696 117.136 24.016 116.058 24.016H113.242V28ZM115.802 22.368C116.336 22.368 116.773 22.2133 117.114 21.904C117.456 21.5947 117.626 21.184 117.626 20.672C117.626 20.16 117.456 19.7493 117.114 19.44C116.773 19.1307 116.336 18.976 115.802 18.976H113.242V22.368H115.802ZM131.566 28H129.886V27.168C129.289 27.8507 128.457 28.192 127.39 28.192C126.686 28.192 126.062 27.968 125.518 27.52C124.974 27.0613 124.702 26.432 124.702 25.632C124.702 24.8107 124.969 24.1867 125.502 23.76C126.046 23.3333 126.675 23.12 127.39 23.12C128.489 23.12 129.321 23.4507 129.886 24.112V22.96C129.886 22.512 129.721 22.16 129.39 21.904C129.059 21.648 128.622 21.52 128.078 21.52C127.214 21.52 126.451 21.8453 125.79 22.496L125.102 21.328C125.977 20.496 127.059 20.08 128.35 20.08C129.299 20.08 130.073 20.304 130.67 20.752C131.267 21.2 131.566 21.9093 131.566 22.88V28ZM128.046 27.04C128.889 27.04 129.502 26.7733 129.886 26.24V25.072C129.502 24.5387 128.889 24.272 128.046 24.272C127.566 24.272 127.171 24.4 126.862 24.656C126.553 24.912 126.398 25.248 126.398 25.664C126.398 26.08 126.553 26.416 126.862 26.672C127.171 26.9173 127.566 27.04 128.046 27.04ZM140.864 28H139.184V26.944C138.544 27.776 137.718 28.192 136.704 28.192C135.691 28.192 134.864 27.8293 134.224 27.104C133.584 26.3787 133.264 25.392 133.264 24.144C133.264 22.9067 133.584 21.92 134.224 21.184C134.864 20.448 135.691 20.08 136.704 20.08C137.718 20.08 138.544 20.5013 139.184 21.344V17.328H140.864V28ZM137.184 26.704C137.579 26.704 137.963 26.608 138.336 26.416C138.71 26.224 138.992 25.9787 139.184 25.68V22.608C138.992 22.3093 138.71 22.064 138.336 21.872C137.963 21.6693 137.579 21.568 137.184 21.568C136.523 21.568 135.995 21.808 135.6 22.288C135.206 22.768 135.008 23.3867 135.008 24.144C135.008 24.9013 135.206 25.52 135.6 26C135.995 26.4693 136.523 26.704 137.184 26.704ZM150.161 28H148.481V26.944C147.841 27.776 147.014 28.192 146.001 28.192C144.988 28.192 144.161 27.8293 143.521 27.104C142.881 26.3787 142.561 25.392 142.561 24.144C142.561 22.9067 142.881 21.92 143.521 21.184C144.161 20.448 144.988 20.08 146.001 20.08C147.014 20.08 147.841 20.5013 148.481 21.344V17.328H150.161V28ZM146.481 26.704C146.876 26.704 147.26 26.608 147.633 26.416C148.006 26.224 148.289 25.9787 148.481 25.68V22.608C148.289 22.3093 148.006 22.064 147.633 21.872C147.26 21.6693 146.876 21.568 146.481 21.568C145.82 21.568 145.292 21.808 144.897 22.288C144.502 22.768 144.305 23.3867 144.305 24.144C144.305 24.9013 144.502 25.52 144.897 26C145.292 26.4693 145.82 26.704 146.481 26.704ZM154.018 28H152.338V20.272H154.018V21.408C154.317 21.024 154.69 20.7093 155.138 20.464C155.586 20.2187 156.05 20.096 156.53 20.096V21.76C156.381 21.728 156.205 21.712 156.002 21.712C155.65 21.712 155.271 21.8187 154.866 22.032C154.471 22.2347 154.189 22.4693 154.018 22.736V28ZM161.453 28.192C160.28 28.192 159.309 27.8187 158.541 27.072C157.784 26.3147 157.405 25.3333 157.405 24.128C157.405 22.9973 157.773 22.0427 158.509 21.264C159.256 20.4747 160.194 20.08 161.325 20.08C162.466 20.08 163.384 20.4747 164.077 21.264C164.781 22.0533 165.133 23.0613 165.133 24.288V24.688H159.165C159.229 25.296 159.48 25.8027 159.917 26.208C160.354 26.6133 160.925 26.816 161.629 26.816C162.024 26.816 162.418 26.7413 162.813 26.592C163.218 26.4427 163.554 26.2347 163.821 25.968L164.589 27.072C163.81 27.8187 162.765 28.192 161.453 28.192ZM163.501 23.504C163.48 22.9707 163.282 22.496 162.909 22.08C162.546 21.664 162.018 21.456 161.325 21.456C160.664 21.456 160.146 21.664 159.773 22.08C159.4 22.4853 159.192 22.96 159.149 23.504H163.501ZM169.431 28.192C168.044 28.192 166.94 27.792 166.119 26.992L166.887 25.776C167.175 26.0747 167.564 26.3307 168.055 26.544C168.546 26.7573 169.031 26.864 169.511 26.864C170.002 26.864 170.375 26.768 170.631 26.576C170.898 26.384 171.031 26.1333 171.031 25.824C171.031 25.5467 170.871 25.3333 170.551 25.184C170.231 25.024 169.842 24.9013 169.383 24.816C168.924 24.72 168.466 24.608 168.007 24.48C167.548 24.3413 167.159 24.1013 166.839 23.76C166.519 23.4187 166.359 22.976 166.359 22.432C166.359 21.7707 166.631 21.216 167.175 20.768C167.719 20.3093 168.46 20.08 169.399 20.08C170.583 20.08 171.586 20.4427 172.407 21.168L171.703 22.352C171.458 22.0747 171.132 21.8507 170.727 21.68C170.322 21.5093 169.884 21.424 169.415 21.424C168.978 21.424 168.626 21.5147 168.359 21.696C168.103 21.8667 167.975 22.0907 167.975 22.368C167.975 22.5813 168.087 22.7573 168.311 22.896C168.546 23.024 168.834 23.12 169.175 23.184C169.527 23.248 169.906 23.3387 170.311 23.456C170.716 23.5627 171.09 23.6907 171.431 23.84C171.783 23.9893 172.071 24.2347 172.295 24.576C172.53 24.9067 172.647 25.312 172.647 25.792C172.647 26.496 172.364 27.072 171.799 27.52C171.234 27.968 170.444 28.192 169.431 28.192ZM176.978 28.192C175.591 28.192 174.487 27.792 173.666 26.992L174.434 25.776C174.722 26.0747 175.111 26.3307 175.602 26.544C176.093 26.7573 176.578 26.864 177.058 26.864C177.549 26.864 177.922 26.768 178.178 26.576C178.445 26.384 178.578 26.1333 178.578 25.824C178.578 25.5467 178.418 25.3333 178.098 25.184C177.778 25.024 177.389 24.9013 176.93 24.816C176.471 24.72 176.013 24.608 175.554 24.48C175.095 24.3413 174.706 24.1013 174.386 23.76C174.066 23.4187 173.906 22.976 173.906 22.432C173.906 21.7707 174.178 21.216 174.722 20.768C175.266 20.3093 176.007 20.08 176.946 20.08C178.13 20.08 179.133 20.4427 179.954 21.168L179.25 22.352C179.005 22.0747 178.679 21.8507 178.274 21.68C177.869 21.5093 177.431 21.424 176.962 21.424C176.525 21.424 176.173 21.5147 175.906 21.696C175.65 21.8667 175.522 22.0907 175.522 22.368C175.522 22.5813 175.634 22.7573 175.858 22.896C176.093 23.024 176.381 23.12 176.722 23.184C177.074 23.248 177.453 23.3387 177.858 23.456C178.263 23.5627 178.637 23.6907 178.978 23.84C179.33 23.9893 179.618 24.2347 179.842 24.576C180.077 24.9067 180.194 25.312 180.194 25.792C180.194 26.496 179.911 27.072 179.346 27.52C178.781 27.968 177.991 28.192 176.978 28.192ZM186.826 19.328C186.549 19.328 186.304 19.2267 186.09 19.024C185.888 18.8213 185.786 18.576 185.786 18.288C185.786 18 185.888 17.7547 186.09 17.552C186.304 17.3493 186.549 17.248 186.826 17.248C187.114 17.248 187.36 17.3493 187.562 17.552C187.765 17.7547 187.866 18 187.866 18.288C187.866 18.576 187.765 18.8213 187.562 19.024C187.36 19.2267 187.114 19.328 186.826 19.328ZM187.674 28H185.994V20.272H187.674V28ZM192.494 28.192C191.107 28.192 190.003 27.792 189.182 26.992L189.95 25.776C190.238 26.0747 190.627 26.3307 191.118 26.544C191.608 26.7573 192.094 26.864 192.574 26.864C193.064 26.864 193.438 26.768 193.694 26.576C193.96 26.384 194.094 26.1333 194.094 25.824C194.094 25.5467 193.934 25.3333 193.614 25.184C193.294 25.024 192.904 24.9013 192.446 24.816C191.987 24.72 191.528 24.608 191.07 24.48C190.611 24.3413 190.222 24.1013 189.902 23.76C189.582 23.4187 189.422 22.976 189.422 22.432C189.422 21.7707 189.694 21.216 190.238 20.768C190.782 20.3093 191.523 20.08 192.462 20.08C193.646 20.08 194.648 20.4427 195.47 21.168L194.766 22.352C194.52 22.0747 194.195 21.8507 193.79 21.68C193.384 21.5093 192.947 21.424 192.478 21.424C192.04 21.424 191.688 21.5147 191.422 21.696C191.166 21.8667 191.038 22.0907 191.038 22.368C191.038 22.5813 191.15 22.7573 191.374 22.896C191.608 23.024 191.896 23.12 192.238 23.184C192.59 23.248 192.968 23.3387 193.374 23.456C193.779 23.5627 194.152 23.6907 194.494 23.84C194.846 23.9893 195.134 24.2347 195.358 24.576C195.592 24.9067 195.71 25.312 195.71 25.792C195.71 26.496 195.427 27.072 194.862 27.52C194.296 27.968 193.507 28.192 192.494 28.192ZM205.078 28.192C203.905 28.192 202.934 27.8187 202.166 27.072C201.409 26.3147 201.03 25.3333 201.03 24.128C201.03 22.9973 201.398 22.0427 202.134 21.264C202.881 20.4747 203.819 20.08 204.95 20.08C206.091 20.08 207.009 20.4747 207.702 21.264C208.406 22.0533 208.758 23.0613 208.758 24.288V24.688H202.79C202.854 25.296 203.105 25.8027 203.542 26.208C203.979 26.6133 204.55 26.816 205.254 26.816C205.649 26.816 206.043 26.7413 206.438 26.592C206.843 26.4427 207.179 26.2347 207.446 25.968L208.214 27.072C207.435 27.8187 206.39 28.192 205.078 28.192ZM207.126 23.504C207.105 22.9707 206.907 22.496 206.534 22.08C206.171 21.664 205.643 21.456 204.95 21.456C204.289 21.456 203.771 21.664 203.398 22.08C203.025 22.4853 202.817 22.96 202.774 23.504H207.126ZM217.184 28H215.296L213.296 25.152L211.28 28H209.408L212.24 24.032L209.568 20.272H211.456L213.296 22.896L215.12 20.272H217.008L214.336 24.032L217.184 28ZM222.514 28.192C221.49 28.192 220.663 27.7707 220.034 26.928V30.944H218.354V20.272H220.034V21.328C220.652 20.496 221.479 20.08 222.514 20.08C223.527 20.08 224.348 20.4427 224.978 21.168C225.618 21.8933 225.938 22.88 225.938 24.128C225.938 25.376 225.618 26.368 224.978 27.104C224.348 27.8293 223.527 28.192 222.514 28.192ZM222.018 26.704C222.679 26.704 223.207 26.464 223.602 25.984C223.996 25.504 224.194 24.8853 224.194 24.128C224.194 23.3707 223.996 22.7573 223.602 22.288C223.207 21.808 222.679 21.568 222.018 21.568C221.634 21.568 221.255 21.6693 220.882 21.872C220.508 22.0747 220.226 22.32 220.034 22.608V25.664C220.226 25.952 220.508 26.1973 220.882 26.4C221.255 26.6027 221.634 26.704 222.018 26.704ZM231.092 28.192C229.897 28.192 228.937 27.8027 228.212 27.024C227.486 26.2347 227.124 25.2693 227.124 24.128C227.124 22.9867 227.486 22.0267 228.212 21.248C228.937 20.4693 229.897 20.08 231.092 20.08C232.297 20.08 233.262 20.4693 233.988 21.248C234.713 22.0267 235.076 22.9867 235.076 24.128C235.076 25.28 234.713 26.2453 233.988 27.024C233.262 27.8027 232.297 28.192 231.092 28.192ZM231.092 26.704C231.785 26.704 232.329 26.4587 232.724 25.968C233.129 25.4667 233.332 24.8533 233.332 24.128C233.332 23.4133 233.129 22.8107 232.724 22.32C232.329 21.8187 231.785 21.568 231.092 21.568C230.409 21.568 229.865 21.8187 229.46 22.32C229.065 22.8107 228.868 23.4133 228.868 24.128C228.868 24.8533 229.065 25.4667 229.46 25.968C229.865 26.4587 230.409 26.704 231.092 26.704ZM239.416 28.192C238.029 28.192 236.925 27.792 236.104 26.992L236.872 25.776C237.16 26.0747 237.549 26.3307 238.039 26.544C238.53 26.7573 239.016 26.864 239.496 26.864C239.986 26.864 240.36 26.768 240.616 26.576C240.882 26.384 241.016 26.1333 241.016 25.824C241.016 25.5467 240.856 25.3333 240.536 25.184C240.216 25.024 239.826 24.9013 239.368 24.816C238.909 24.72 238.45 24.608 237.992 24.48C237.533 24.3413 237.144 24.1013 236.824 23.76C236.504 23.4187 236.344 22.976 236.344 22.432C236.344 21.7707 236.616 21.216 237.16 20.768C237.704 20.3093 238.445 20.08 239.384 20.08C240.568 20.08 241.57 20.4427 242.392 21.168L241.688 22.352C241.442 22.0747 241.117 21.8507 240.712 21.68C240.306 21.5093 239.869 21.424 239.4 21.424C238.962 21.424 238.61 21.5147 238.344 21.696C238.088 21.8667 237.96 22.0907 237.96 22.368C237.96 22.5813 238.072 22.7573 238.296 22.896C238.53 23.024 238.818 23.12 239.16 23.184C239.512 23.248 239.89 23.3387 240.296 23.456C240.701 23.5627 241.074 23.6907 241.416 23.84C241.768 23.9893 242.056 24.2347 242.28 24.576C242.514 24.9067 242.632 25.312 242.632 25.792C242.632 26.496 242.349 27.072 241.784 27.52C241.218 27.968 240.429 28.192 239.416 28.192ZM247.89 28.192C246.717 28.192 245.746 27.8187 244.978 27.072C244.221 26.3147 243.842 25.3333 243.842 24.128C243.842 22.9973 244.21 22.0427 244.946 21.264C245.693 20.4747 246.632 20.08 247.762 20.08C248.904 20.08 249.821 20.4747 250.514 21.264C251.218 22.0533 251.57 23.0613 251.57 24.288V24.688H245.602C245.666 25.296 245.917 25.8027 246.354 26.208C246.792 26.6133 247.362 26.816 248.066 26.816C248.461 26.816 248.856 26.7413 249.25 26.592C249.656 26.4427 249.992 26.2347 250.258 25.968L251.026 27.072C250.248 27.8187 249.202 28.192 247.89 28.192ZM249.938 23.504C249.917 22.9707 249.72 22.496 249.346 22.08C248.984 21.664 248.456 21.456 247.762 21.456C247.101 21.456 246.584 21.664 246.21 22.08C245.837 22.4853 245.629 22.96 245.586 23.504H249.938ZM260.349 28H258.669V26.944C258.029 27.776 257.202 28.192 256.189 28.192C255.175 28.192 254.349 27.8293 253.709 27.104C253.069 26.3787 252.749 25.392 252.749 24.144C252.749 22.9067 253.069 21.92 253.709 21.184C254.349 20.448 255.175 20.08 256.189 20.08C257.202 20.08 258.029 20.5013 258.669 21.344V17.328H260.349V28ZM256.669 26.704C257.063 26.704 257.447 26.608 257.821 26.416C258.194 26.224 258.477 25.9787 258.669 25.68V22.608C258.477 22.3093 258.194 22.064 257.821 21.872C257.447 21.6693 257.063 21.568 256.669 21.568C256.007 21.568 255.479 21.808 255.085 22.288C254.69 22.768 254.493 23.3867 254.493 24.144C254.493 24.9013 254.69 25.52 255.085 26C255.479 26.4693 256.007 26.704 256.669 26.704ZM77.488 49H75.808V48.168C75.2107 48.8507 74.3787 49.192 73.312 49.192C72.608 49.192 71.984 48.968 71.44 48.52C70.896 48.0613 70.624 47.432 70.624 46.632C70.624 45.8107 70.8907 45.1867 71.424 44.76C71.968 44.3333 72.5973 44.12 73.312 44.12C74.4107 44.12 75.2427 44.4507 75.808 45.112V43.96C75.808 43.512 75.6427 43.16 75.312 42.904C74.9813 42.648 74.544 42.52 74 42.52C73.136 42.52 72.3733 42.8453 71.712 43.496L71.024 42.328C71.8987 41.496 72.9813 41.08 74.272 41.08C75.2213 41.08 75.9947 41.304 76.592 41.752C77.1893 42.2 77.488 42.9093 77.488 43.88V49ZM73.968 48.04C74.8107 48.04 75.424 47.7733 75.808 47.24V46.072C75.424 45.5387 74.8107 45.272 73.968 45.272C73.488 45.272 73.0933 45.4 72.784 45.656C72.4747 45.912 72.32 46.248 72.32 46.664C72.32 47.08 72.4747 47.416 72.784 47.672C73.0933 47.9173 73.488 48.04 73.968 48.04ZM86.5621 49H84.8821V44.168C84.8821 43.1013 84.3648 42.568 83.3301 42.568C82.9248 42.568 82.5461 42.6693 82.1941 42.872C81.8421 43.0747 81.5595 43.32 81.3461 43.608V49H79.6661V41.272H81.3461V42.328C81.6341 41.9867 82.0181 41.6933 82.4981 41.448C82.9781 41.2027 83.5008 41.08 84.0661 41.08C84.8875 41.08 85.5061 41.2933 85.9221 41.72C86.3488 42.1467 86.5621 42.76 86.5621 43.56V49ZM95.8643 49H94.1843V47.944C93.5443 48.776 92.7176 49.192 91.7043 49.192C90.6909 49.192 89.8643 48.8293 89.2243 48.104C88.5843 47.3787 88.2643 46.392 88.2643 45.144C88.2643 43.9067 88.5843 42.92 89.2243 42.184C89.8643 41.448 90.6909 41.08 91.7043 41.08C92.7176 41.08 93.5443 41.5013 94.1843 42.344V38.328H95.8643V49ZM92.1843 47.704C92.5789 47.704 92.9629 47.608 93.3363 47.416C93.7096 47.224 93.9923 46.9787 94.1843 46.68V43.608C93.9923 43.3093 93.7096 43.064 93.3363 42.872C92.9629 42.6693 92.5789 42.568 92.1843 42.568C91.5229 42.568 90.9949 42.808 90.6003 43.288C90.2056 43.768 90.0082 44.3867 90.0082 45.144C90.0082 45.9013 90.2056 46.52 90.6003 47C90.9949 47.4693 91.5229 47.704 92.1843 47.704ZM110.647 49H108.887L107.095 43.336L105.303 49H103.543L101.143 41.272H102.887L104.519 46.888L106.359 41.272H107.831L109.671 46.888L111.303 41.272H113.047L110.647 49ZM117.781 49.192C116.608 49.192 115.637 48.8187 114.869 48.072C114.112 47.3147 113.733 46.3333 113.733 45.128C113.733 43.9973 114.101 43.0427 114.837 42.264C115.584 41.4747 116.522 41.08 117.653 41.08C118.794 41.08 119.712 41.4747 120.405 42.264C121.109 43.0533 121.461 44.0613 121.461 45.288V45.688H115.493C115.557 46.296 115.808 46.8027 116.245 47.208C116.682 47.6133 117.253 47.816 117.957 47.816C118.352 47.816 118.746 47.7413 119.141 47.592C119.546 47.4427 119.882 47.2347 120.149 46.968L120.917 48.072C120.138 48.8187 119.093 49.192 117.781 49.192ZM119.829 44.504C119.808 43.9707 119.61 43.496 119.237 43.08C118.874 42.664 118.346 42.456 117.653 42.456C116.992 42.456 116.474 42.664 116.101 43.08C115.728 43.4853 115.52 43.96 115.477 44.504H119.829ZM124.799 46.68C124.981 46.968 125.258 47.2133 125.631 47.416C126.015 47.608 126.399 47.704 126.783 47.704C127.445 47.704 127.973 47.4693 128.367 47C128.773 46.52 128.975 45.9013 128.975 45.144C128.975 44.3867 128.773 43.768 128.367 43.288C127.973 42.808 127.445 42.568 126.783 42.568C126.399 42.568 126.021 42.6693 125.647 42.872C125.274 43.0747 124.991 43.3253 124.799 43.624V46.68ZM124.799 49H123.119V38.328H124.799V42.344C125.429 41.5013 126.255 41.08 127.279 41.08C128.282 41.08 129.103 41.4533 129.743 42.2C130.383 42.936 130.703 43.9173 130.703 45.144C130.703 46.392 130.383 47.3787 129.743 48.104C129.103 48.8293 128.282 49.192 127.279 49.192C126.266 49.192 125.439 48.776 124.799 47.944V49ZM135.056 49.192C133.669 49.192 132.565 48.792 131.744 47.992L132.512 46.776C132.8 47.0747 133.189 47.3307 133.68 47.544C134.171 47.7573 134.656 47.864 135.136 47.864C135.627 47.864 136 47.768 136.256 47.576C136.523 47.384 136.656 47.1333 136.656 46.824C136.656 46.5467 136.496 46.3333 136.176 46.184C135.856 46.024 135.467 45.9013 135.008 45.816C134.549 45.72 134.091 45.608 133.632 45.48C133.173 45.3413 132.784 45.1013 132.464 44.76C132.144 44.4187 131.984 43.976 131.984 43.432C131.984 42.7707 132.256 42.216 132.8 41.768C133.344 41.3093 134.085 41.08 135.024 41.08C136.208 41.08 137.211 41.4427 138.032 42.168L137.328 43.352C137.083 43.0747 136.757 42.8507 136.352 42.68C135.947 42.5093 135.509 42.424 135.04 42.424C134.603 42.424 134.251 42.5147 133.984 42.696C133.728 42.8667 133.6 43.0907 133.6 43.368C133.6 43.5813 133.712 43.7573 133.936 43.896C134.171 44.024 134.459 44.12 134.8 44.184C135.152 44.248 135.531 44.3387 135.936 44.456C136.341 44.5627 136.715 44.6907 137.056 44.84C137.408 44.9893 137.696 45.2347 137.92 45.576C138.155 45.9067 138.272 46.312 138.272 46.792C138.272 47.496 137.989 48.072 137.424 48.52C136.859 48.968 136.069 49.192 135.056 49.192ZM140.795 40.328C140.518 40.328 140.272 40.2267 140.059 40.024C139.856 39.8213 139.755 39.576 139.755 39.288C139.755 39 139.856 38.7547 140.059 38.552C140.272 38.3493 140.518 38.248 140.795 38.248C141.083 38.248 141.328 38.3493 141.531 38.552C141.734 38.7547 141.835 39 141.835 39.288C141.835 39.576 141.734 39.8213 141.531 40.024C141.328 40.2267 141.083 40.328 140.795 40.328ZM141.643 49H139.963V41.272H141.643V49ZM146.142 49.192C145.492 49.192 144.996 49.0213 144.654 48.68C144.324 48.3387 144.158 47.848 144.158 47.208V42.744H142.878V41.272H144.158V39.16H145.838V41.272H147.406V42.744H145.838V46.792C145.838 47.0693 145.902 47.2933 146.03 47.464C146.158 47.624 146.34 47.704 146.574 47.704C146.916 47.704 147.166 47.6133 147.326 47.432L147.726 48.696C147.374 49.0267 146.846 49.192 146.142 49.192ZM152.5 49.192C151.326 49.192 150.356 48.8187 149.588 48.072C148.83 47.3147 148.452 46.3333 148.452 45.128C148.452 43.9973 148.82 43.0427 149.556 42.264C150.302 41.4747 151.241 41.08 152.372 41.08C153.513 41.08 154.43 41.4747 155.124 42.264C155.828 43.0533 156.18 44.0613 156.18 45.288V45.688H150.212C150.276 46.296 150.526 46.8027 150.964 47.208C151.401 47.6133 151.972 47.816 152.676 47.816C153.07 47.816 153.465 47.7413 153.86 47.592C154.265 47.4427 154.601 47.2347 154.868 46.968L155.636 48.072C154.857 48.8187 153.812 49.192 152.5 49.192ZM154.548 44.504C154.526 43.9707 154.329 43.496 153.956 43.08C153.593 42.664 153.065 42.456 152.372 42.456C151.71 42.456 151.193 42.664 150.82 43.08C150.446 43.4853 150.238 43.96 150.196 44.504H154.548ZM160.478 49.192C159.091 49.192 157.987 48.792 157.166 47.992L157.934 46.776C158.222 47.0747 158.611 47.3307 159.102 47.544C159.593 47.7573 160.078 47.864 160.558 47.864C161.049 47.864 161.422 47.768 161.678 47.576C161.945 47.384 162.078 47.1333 162.078 46.824C162.078 46.5467 161.918 46.3333 161.598 46.184C161.278 46.024 160.889 45.9013 160.43 45.816C159.971 45.72 159.513 45.608 159.054 45.48C158.595 45.3413 158.206 45.1013 157.886 44.76C157.566 44.4187 157.406 43.976 157.406 43.432C157.406 42.7707 157.678 42.216 158.222 41.768C158.766 41.3093 159.507 41.08 160.446 41.08C161.63 41.08 162.633 41.4427 163.454 42.168L162.75 43.352C162.505 43.0747 162.179 42.8507 161.774 42.68C161.369 42.5093 160.931 42.424 160.462 42.424C160.025 42.424 159.673 42.5147 159.406 42.696C159.15 42.8667 159.022 43.0907 159.022 43.368C159.022 43.5813 159.134 43.7573 159.358 43.896C159.593 44.024 159.881 44.12 160.222 44.184C160.574 44.248 160.953 44.3387 161.358 44.456C161.763 44.5627 162.137 44.6907 162.478 44.84C162.83 44.9893 163.118 45.2347 163.342 45.576C163.577 45.9067 163.694 46.312 163.694 46.792C163.694 47.496 163.411 48.072 162.846 48.52C162.281 48.968 161.491 49.192 160.478 49.192ZM173.014 49.192C171.841 49.192 170.881 48.8133 170.134 48.056C169.388 47.288 169.014 46.312 169.014 45.128C169.014 43.9547 169.388 42.9893 170.134 42.232C170.881 41.464 171.841 41.08 173.014 41.08C174.305 41.08 175.292 41.5387 175.974 42.456L174.87 43.48C174.444 42.872 173.852 42.568 173.094 42.568C172.39 42.568 171.825 42.808 171.398 43.288C170.972 43.7573 170.758 44.3707 170.758 45.128C170.758 45.8853 170.972 46.504 171.398 46.984C171.825 47.464 172.39 47.704 173.094 47.704C173.83 47.704 174.422 47.4 174.87 46.792L175.974 47.816C175.292 48.7333 174.305 49.192 173.014 49.192ZM183.847 49H182.167V48.168C181.57 48.8507 180.738 49.192 179.671 49.192C178.967 49.192 178.343 48.968 177.799 48.52C177.255 48.0613 176.983 47.432 176.983 46.632C176.983 45.8107 177.25 45.1867 177.783 44.76C178.327 44.3333 178.957 44.12 179.671 44.12C180.77 44.12 181.602 44.4507 182.167 45.112V43.96C182.167 43.512 182.002 43.16 181.671 42.904C181.341 42.648 180.903 42.52 180.359 42.52C179.495 42.52 178.733 42.8453 178.071 43.496L177.383 42.328C178.258 41.496 179.341 41.08 180.631 41.08C181.581 41.08 182.354 41.304 182.951 41.752C183.549 42.2 183.847 42.9093 183.847 43.88V49ZM180.327 48.04C181.17 48.04 181.783 47.7733 182.167 47.24V46.072C181.783 45.5387 181.17 45.272 180.327 45.272C179.847 45.272 179.453 45.4 179.143 45.656C178.834 45.912 178.679 46.248 178.679 46.664C178.679 47.08 178.834 47.416 179.143 47.672C179.453 47.9173 179.847 48.04 180.327 48.04ZM192.922 49H191.242V44.168C191.242 43.1013 190.724 42.568 189.69 42.568C189.284 42.568 188.906 42.6693 188.554 42.872C188.202 43.0747 187.919 43.32 187.706 43.608V49H186.026V41.272H187.706V42.328C187.994 41.9867 188.378 41.6933 188.858 41.448C189.338 41.2027 189.86 41.08 190.426 41.08C191.247 41.08 191.866 41.2933 192.282 41.72C192.708 42.1467 192.922 42.76 192.922 43.56V49ZM200.045 40.328C199.768 40.328 199.522 40.2267 199.309 40.024C199.106 39.8213 199.005 39.576 199.005 39.288C199.005 39 199.106 38.7547 199.309 38.552C199.522 38.3493 199.768 38.248 200.045 38.248C200.333 38.248 200.578 38.3493 200.781 38.552C200.984 38.7547 201.085 39 201.085 39.288C201.085 39.576 200.984 39.8213 200.781 40.024C200.578 40.2267 200.333 40.328 200.045 40.328ZM200.893 49H199.213V41.272H200.893V49ZM210.192 49H208.512V47.944C207.872 48.776 207.046 49.192 206.032 49.192C205.019 49.192 204.192 48.8293 203.552 48.104C202.912 47.3787 202.592 46.392 202.592 45.144C202.592 43.9067 202.912 42.92 203.552 42.184C204.192 41.448 205.019 41.08 206.032 41.08C207.046 41.08 207.872 41.5013 208.512 42.344V38.328H210.192V49ZM206.512 47.704C206.907 47.704 207.291 47.608 207.664 47.416C208.038 47.224 208.32 46.9787 208.512 46.68V43.608C208.32 43.3093 208.038 43.064 207.664 42.872C207.291 42.6693 206.907 42.568 206.512 42.568C205.851 42.568 205.323 42.808 204.928 43.288C204.534 43.768 204.336 44.3867 204.336 45.144C204.336 45.9013 204.534 46.52 204.928 47C205.323 47.4693 205.851 47.704 206.512 47.704ZM215.937 49.192C214.764 49.192 213.793 48.8187 213.025 48.072C212.268 47.3147 211.889 46.3333 211.889 45.128C211.889 43.9973 212.257 43.0427 212.993 42.264C213.74 41.4747 214.679 41.08 215.809 41.08C216.951 41.08 217.868 41.4747 218.561 42.264C219.265 43.0533 219.617 44.0613 219.617 45.288V45.688H213.649C213.713 46.296 213.964 46.8027 214.401 47.208C214.839 47.6133 215.409 47.816 216.113 47.816C216.508 47.816 216.903 47.7413 217.297 47.592C217.703 47.4427 218.039 47.2347 218.305 46.968L219.073 48.072C218.295 48.8187 217.249 49.192 215.937 49.192ZM217.985 44.504C217.964 43.9707 217.767 43.496 217.393 43.08C217.031 42.664 216.503 42.456 215.809 42.456C215.148 42.456 214.631 42.664 214.257 43.08C213.884 43.4853 213.676 43.96 213.633 44.504H217.985ZM228.172 49H226.492V44.168C226.492 43.1013 225.974 42.568 224.94 42.568C224.534 42.568 224.156 42.6693 223.804 42.872C223.452 43.0747 223.169 43.32 222.956 43.608V49H221.276V41.272H222.956V42.328C223.244 41.9867 223.628 41.6933 224.108 41.448C224.588 41.2027 225.11 41.08 225.676 41.08C226.497 41.08 227.116 41.2933 227.532 41.72C227.958 42.1467 228.172 42.76 228.172 43.56V49ZM232.674 49.192C232.023 49.192 231.527 49.0213 231.186 48.68C230.855 48.3387 230.69 47.848 230.69 47.208V42.744H229.41V41.272H230.69V39.16H232.37V41.272H233.938V42.744H232.37V46.792C232.37 47.0693 232.434 47.2933 232.562 47.464C232.69 47.624 232.871 47.704 233.106 47.704C233.447 47.704 233.698 47.6133 233.858 47.432L234.258 48.696C233.906 49.0267 233.378 49.192 232.674 49.192ZM236.295 40.328C236.018 40.328 235.772 40.2267 235.559 40.024C235.356 39.8213 235.255 39.576 235.255 39.288C235.255 39 235.356 38.7547 235.559 38.552C235.772 38.3493 236.018 38.248 236.295 38.248C236.583 38.248 236.828 38.3493 237.031 38.552C237.234 38.7547 237.335 39 237.335 39.288C237.335 39.576 237.234 39.8213 237.031 40.024C236.828 40.2267 236.583 40.328 236.295 40.328ZM237.143 49H235.463V41.272H237.143V49ZM241.402 49H239.722V42.744H238.442V41.272H239.722V40.84C239.722 40.008 239.941 39.3573 240.378 38.888C240.826 38.408 241.424 38.168 242.17 38.168C242.97 38.168 243.589 38.392 244.026 38.84L243.37 39.88C243.125 39.656 242.826 39.544 242.474 39.544C242.144 39.544 241.882 39.656 241.69 39.88C241.498 40.0933 241.402 40.4133 241.402 40.84V41.272H242.97V42.744H241.402V49ZM243.908 52.024L244.164 50.52C244.356 50.6053 244.57 50.648 244.804 50.648C245.348 50.648 245.716 50.424 245.908 49.976L246.292 49.096L243.124 41.272H244.916L247.172 47.064L249.428 41.272H251.236L247.508 50.392C247.05 51.5333 246.164 52.1147 244.852 52.136C244.5 52.136 244.186 52.0987 243.908 52.024ZM256.065 52.024L256.321 50.52C256.513 50.6053 256.726 50.648 256.961 50.648C257.505 50.648 257.873 50.424 258.065 49.976L258.449 49.096L255.28 41.272H257.073L259.329 47.064L261.585 41.272H263.392L259.665 50.392C259.206 51.5333 258.321 52.1147 257.009 52.136C256.657 52.136 256.342 52.0987 256.065 52.024ZM267.935 49.192C266.741 49.192 265.781 48.8027 265.055 48.024C264.33 47.2347 263.967 46.2693 263.967 45.128C263.967 43.9867 264.33 43.0267 265.055 42.248C265.781 41.4693 266.741 41.08 267.935 41.08C269.141 41.08 270.106 41.4693 270.831 42.248C271.557 43.0267 271.919 43.9867 271.919 45.128C271.919 46.28 271.557 47.2453 270.831 48.024C270.106 48.8027 269.141 49.192 267.935 49.192ZM267.935 47.704C268.629 47.704 269.173 47.4587 269.567 46.968C269.973 46.4667 270.175 45.8533 270.175 45.128C270.175 44.4133 269.973 43.8107 269.567 43.32C269.173 42.8187 268.629 42.568 267.935 42.568C267.253 42.568 266.709 42.8187 266.303 43.32C265.909 43.8107 265.711 44.4133 265.711 45.128C265.711 45.8533 265.909 46.4667 266.303 46.968C266.709 47.4587 267.253 47.704 267.935 47.704ZM280.515 49H278.835V47.976C278.11 48.7867 277.198 49.192 276.099 49.192C274.446 49.192 273.619 48.376 273.619 46.744V41.272H275.299V46.136C275.299 46.7013 275.433 47.1067 275.699 47.352C275.966 47.5867 276.35 47.704 276.851 47.704C277.257 47.704 277.635 47.608 277.987 47.416C278.339 47.224 278.622 46.984 278.835 46.696V41.272H280.515V49ZM284.345 48.856C284.121 49.0693 283.86 49.176 283.561 49.176C283.263 49.176 283.001 49.0693 282.777 48.856C282.553 48.632 282.441 48.3653 282.441 48.056C282.441 47.7467 282.553 47.4853 282.777 47.272C283.001 47.048 283.263 46.936 283.561 46.936C283.86 46.936 284.121 47.048 284.345 47.272C284.569 47.4853 284.681 47.7467 284.681 48.056C284.681 48.3653 284.569 48.632 284.345 48.856Z" fill="white"/>
<path d="M47.9999 29.3333H31.4999V23.8333C31.4999 20.801 33.9676 18.3333 36.9999 18.3333C40.0323 18.3333 42.4999 20.801 42.4999 23.8333H46.1666C46.1666 18.7788 42.0544 14.6667 36.9999 14.6667C31.9454 14.6667 27.8333 18.7788 27.8333 23.8333V29.3333H25.9999C25.0275 29.3333 24.0948 29.7196 23.4072 30.4073C22.7196 31.0949 22.3333 32.0275 22.3333 33V47.6667C22.3333 48.6391 22.7196 49.5718 23.4072 50.2594C24.0948 50.947 25.0275 51.3333 25.9999 51.3333H47.9999C48.9724 51.3333 49.905 50.947 50.5926 50.2594C51.2803 49.5718 51.6666 48.6391 51.6666 47.6667V33C51.6666 32.0275 51.2803 31.0949 50.5926 30.4073C49.905 29.7196 48.9724 29.3333 47.9999 29.3333ZM33.4451 39.4148C33.6704 38.5521 34.2021 37.8009 34.9409 37.3016C35.6796 36.8023 36.5748 36.5889 37.4594 36.7014C38.3439 36.814 39.1572 37.2446 39.7474 37.913C40.3376 38.5813 40.6644 39.4417 40.6666 40.3333C40.6655 40.9745 40.4955 41.6041 40.1737 42.1587C39.8518 42.7132 39.3895 43.1732 38.8333 43.4922V47.6667H35.1666V43.4922C34.4729 43.0947 33.9288 42.4805 33.6178 41.744C33.3068 41.0074 33.2462 40.1892 33.4451 39.4148V39.4148Z" fill="white"/>
</svg>
