<svg width="19" height="17" viewBox="0 0 19 17" fill="none" xmlns="http://www.w3.org/2000/svg">
<g clip-path="url(#clip0)">
<path d="M9.49935 0.583252C7.31672 0.583252 5.54102 2.35896 5.54102 4.54159V6.91659H4.74935C4.32942 6.91659 3.9267 7.0834 3.62976 7.38033C3.33283 7.67727 3.16602 8.07999 3.16602 8.49992V14.8333C3.16602 15.2532 3.33283 15.6559 3.62976 15.9528C3.9267 16.2498 4.32942 16.4166 4.74935 16.4166H14.2493C14.6693 16.4166 15.072 16.2498 15.3689 15.9528C15.6659 15.6559 15.8327 15.2532 15.8327 14.8333V8.49992C15.8327 8.07999 15.6659 7.67727 15.3689 7.38033C15.072 7.0834 14.6693 6.91659 14.2493 6.91659H13.4577V4.54159C13.4577 2.35896 11.682 0.583252 9.49935 0.583252ZM7.12435 4.54159C7.12435 3.23217 8.18993 2.16659 9.49935 2.16659C10.8088 2.16659 11.8743 3.23217 11.8743 4.54159V6.91659H7.12435V4.54159ZM10.291 13.0306V14.8333H8.70768V13.0306C8.4309 12.8721 8.20866 12.6335 8.07026 12.3461C7.93185 12.0588 7.88378 11.7362 7.93239 11.421C7.981 11.1058 8.124 10.8127 8.34254 10.5804C8.56108 10.3481 8.84489 10.1874 9.15656 10.1197C9.38805 10.0685 9.62809 10.0699 9.85896 10.1239C10.0898 10.1778 10.3057 10.2829 10.4905 10.4313C10.6754 10.5798 10.8245 10.7678 10.927 10.9816C11.0295 11.1954 11.0827 11.4295 11.0827 11.6666C11.0822 11.9435 11.0088 12.2153 10.8698 12.4548C10.7308 12.6943 10.5312 12.8929 10.291 13.0306Z" fill="#009B64"/>
</g>
<defs>
<clipPath id="clip0">
<rect width="19" height="17" fill="white"/>
</clipPath>
</defs>
</svg>
