<svg width="72" height="60" viewBox="0 0 72 60" fill="none" xmlns="http://www.w3.org/2000/svg">
<ellipse cx="36" cy="31" rx="36" ry="29" fill="#E80919" fill-opacity="0.08"/>
<ellipse cx="36" cy="31" rx="25" ry="20" fill="#E80919" fill-opacity="0.1"/>
<ellipse cx="36" cy="31" rx="16" ry="13" fill="#E80919" fill-opacity="0.2"/>
<path d="M36.0007 0.333313C29.5507 0.333313 24.334 5.54998 24.334 12C24.334 20.75 36.0007 33.6666 36.0007 33.6666C36.0007 33.6666 47.6673 20.75 47.6673 12C47.6673 5.54998 42.4507 0.333313 36.0007 0.333313ZM36.0007 16.1666C34.8956 16.1666 33.8358 15.7277 33.0544 14.9463C32.273 14.1649 31.834 13.105 31.834 12C31.834 10.8949 32.273 9.8351 33.0544 9.0537C33.8358 8.2723 34.8956 7.83331 36.0007 7.83331C37.1057 7.83331 38.1655 8.2723 38.9469 9.0537C39.7283 9.8351 40.1673 10.8949 40.1673 12C40.1673 13.105 39.7283 14.1649 38.9469 14.9463C38.1655 15.7277 37.1057 16.1666 36.0007 16.1666V16.1666Z" fill="#FF2D55"/>
</svg>
