<svg width="72" height="60" viewBox="0 0 72 60" fill="none" xmlns="http://www.w3.org/2000/svg">
<ellipse cx="36" cy="30.6667" rx="36" ry="29" fill="#009B64" fill-opacity="0.08"/>
<ellipse cx="36" cy="30.6667" rx="25" ry="20" fill="#009B64" fill-opacity="0.1"/>
<ellipse cx="36" cy="30.6667" rx="16" ry="13" fill="#009B64" fill-opacity="0.2"/>
<path d="M36.0007 0C29.5507 0 24.334 5.21667 24.334 11.6667C24.334 20.4167 36.0007 33.3333 36.0007 33.3333C36.0007 33.3333 47.6673 20.4167 47.6673 11.6667C47.6673 5.21667 42.4507 0 36.0007 0ZM36.0007 15.8333C34.8956 15.8333 33.8358 15.3943 33.0544 14.6129C32.273 13.8315 31.834 12.7717 31.834 11.6667C31.834 10.5616 32.273 9.50179 33.0544 8.72039C33.8358 7.93899 34.8956 7.5 36.0007 7.5C37.1057 7.5 38.1655 7.93899 38.9469 8.72039C39.7283 9.50179 40.1673 10.5616 40.1673 11.6667C40.1673 12.7717 39.7283 13.8315 38.9469 14.6129C38.1655 15.3943 37.1057 15.8333 36.0007 15.8333Z" fill="#009B64"/>
</svg>
