<svg width="300" height="70" viewBox="0 0 300 70" fill="none" xmlns="http://www.w3.org/2000/svg">
<rect width="300" height="70" rx="10" fill="#009B64"/>
<path d="M77.88 41H75.04V35.54L69.9 27.66H73.14L76.46 33.02L79.74 27.66H82.98L77.88 35.54V41ZM89.8702 39.78C88.9368 40.7533 87.6968 41.24 86.1502 41.24C84.6035 41.24 83.3635 40.7533 82.4302 39.78C81.5102 38.7933 81.0502 37.5867 81.0502 36.16C81.0502 34.7333 81.5102 33.5333 82.4302 32.56C83.3635 31.5867 84.6035 31.1 86.1502 31.1C87.6968 31.1 88.9368 31.5867 89.8702 32.56C90.8035 33.5333 91.2702 34.7333 91.2702 36.16C91.2702 37.5867 90.8035 38.7933 89.8702 39.78ZM84.3502 38.18C84.7902 38.7133 85.3902 38.98 86.1502 38.98C86.9102 38.98 87.5102 38.7133 87.9502 38.18C88.4035 37.6333 88.6302 36.96 88.6302 36.16C88.6302 35.3733 88.4035 34.7133 87.9502 34.18C87.5102 33.6333 86.9102 33.36 86.1502 33.36C85.3902 33.36 84.7902 33.6333 84.3502 34.18C83.9102 34.7133 83.6902 35.3733 83.6902 36.16C83.6902 36.96 83.9102 37.6333 84.3502 38.18ZM102.215 41H99.6745V39.78C98.8079 40.7533 97.6745 41.24 96.2745 41.24C95.2345 41.24 94.4545 40.9733 93.9345 40.44C93.4145 39.9067 93.1545 39.16 93.1545 38.2V31.34H95.6945V37.2C95.6945 38.3867 96.2879 38.98 97.4745 38.98C98.3679 38.98 99.1012 38.6133 99.6745 37.88V31.34H102.215V41ZM107.277 41H104.737V31.34H107.277V32.66C107.637 32.2067 108.097 31.8333 108.657 31.54C109.217 31.2467 109.783 31.1 110.357 31.1V33.58C110.183 33.54 109.95 33.52 109.657 33.52C109.23 33.52 108.777 33.6267 108.297 33.84C107.817 34.0533 107.477 34.3133 107.277 34.62V41ZM126.261 41H123.701V39.76C122.914 40.7467 121.921 41.24 120.721 41.24C119.467 41.24 118.441 40.7933 117.641 39.9C116.841 38.9933 116.441 37.7533 116.441 36.18C116.441 34.6333 116.841 33.4 117.641 32.48C118.441 31.56 119.467 31.1 120.721 31.1C121.947 31.1 122.941 31.5933 123.701 32.58V27.66H126.261V41ZM121.501 38.98C121.927 38.98 122.347 38.88 122.761 38.68C123.174 38.4667 123.487 38.2 123.701 37.88V34.46C123.487 34.14 123.174 33.88 122.761 33.68C122.347 33.4667 121.927 33.36 121.501 33.36C120.781 33.36 120.194 33.62 119.741 34.14C119.287 34.66 119.061 35.34 119.061 36.18C119.061 37.0067 119.287 37.68 119.741 38.2C120.194 38.72 120.781 38.98 121.501 38.98ZM137.12 41H134.58V40C133.886 40.8267 132.866 41.24 131.52 41.24C130.653 41.24 129.873 40.96 129.18 40.4C128.5 39.8267 128.16 39.04 128.16 38.04C128.16 37 128.493 36.22 129.16 35.7C129.84 35.18 130.626 34.92 131.52 34.92C132.893 34.92 133.913 35.3133 134.58 36.1V34.8C134.58 34.3067 134.386 33.9133 134 33.62C133.613 33.3267 133.1 33.18 132.46 33.18C131.406 33.18 130.466 33.56 129.64 34.32L128.68 32.62C129.826 31.6067 131.233 31.1 132.9 31.1C134.14 31.1 135.153 31.3867 135.94 31.96C136.726 32.5333 137.12 33.4667 137.12 34.76V41ZM132.54 39.52C133.486 39.52 134.166 39.24 134.58 38.68V37.48C134.166 36.92 133.486 36.64 132.54 36.64C132.02 36.64 131.586 36.7733 131.24 37.04C130.893 37.2933 130.72 37.6467 130.72 38.1C130.72 38.54 130.893 38.8867 131.24 39.14C131.586 39.3933 132.02 39.52 132.54 39.52ZM142.879 41.24C141.986 41.24 141.306 41.0133 140.839 40.56C140.372 40.1067 140.139 39.4533 140.139 38.6V33.56H138.539V31.34H140.139V28.7H142.699V31.34H144.659V33.56H142.699V37.92C142.699 38.2267 142.779 38.48 142.939 38.68C143.099 38.88 143.312 38.98 143.579 38.98C143.979 38.98 144.272 38.8867 144.459 38.7L144.999 40.62C144.532 41.0333 143.826 41.24 142.879 41.24ZM154.737 41H152.197V40C151.503 40.8267 150.483 41.24 149.137 41.24C148.27 41.24 147.49 40.96 146.797 40.4C146.117 39.8267 145.777 39.04 145.777 38.04C145.777 37 146.11 36.22 146.777 35.7C147.457 35.18 148.243 34.92 149.137 34.92C150.51 34.92 151.53 35.3133 152.197 36.1V34.8C152.197 34.3067 152.003 33.9133 151.617 33.62C151.23 33.3267 150.717 33.18 150.077 33.18C149.023 33.18 148.083 33.56 147.257 34.32L146.297 32.62C147.443 31.6067 148.85 31.1 150.517 31.1C151.757 31.1 152.77 31.3867 153.557 31.96C154.343 32.5333 154.737 33.4667 154.737 34.76V41ZM150.157 39.52C151.103 39.52 151.783 39.24 152.197 38.68V37.48C151.783 36.92 151.103 36.64 150.157 36.64C149.637 36.64 149.203 36.7733 148.857 37.04C148.51 37.2933 148.337 37.6467 148.337 38.1C148.337 38.54 148.51 38.8867 148.857 39.14C149.203 39.3933 149.637 39.52 150.157 39.52ZM170.713 41H168.173V40C167.48 40.8267 166.46 41.24 165.113 41.24C164.247 41.24 163.467 40.96 162.773 40.4C162.093 39.8267 161.753 39.04 161.753 38.04C161.753 37 162.087 36.22 162.753 35.7C163.433 35.18 164.22 34.92 165.113 34.92C166.487 34.92 167.507 35.3133 168.173 36.1V34.8C168.173 34.3067 167.98 33.9133 167.593 33.62C167.207 33.3267 166.693 33.18 166.053 33.18C165 33.18 164.06 33.56 163.233 34.32L162.273 32.62C163.42 31.6067 164.827 31.1 166.493 31.1C167.733 31.1 168.747 31.3867 169.533 31.96C170.32 32.5333 170.713 33.4667 170.713 34.76V41ZM166.133 39.52C167.08 39.52 167.76 39.24 168.173 38.68V37.48C167.76 36.92 167.08 36.64 166.133 36.64C165.613 36.64 165.18 36.7733 164.833 37.04C164.487 37.2933 164.313 37.6467 164.313 38.1C164.313 38.54 164.487 38.8867 164.833 39.14C165.18 39.3933 165.613 39.52 166.133 39.52ZM175.773 41H173.233V31.34H175.773V32.66C176.133 32.2067 176.593 31.8333 177.153 31.54C177.713 31.2467 178.279 31.1 178.853 31.1V33.58C178.679 33.54 178.446 33.52 178.153 33.52C177.726 33.52 177.273 33.6267 176.793 33.84C176.313 34.0533 175.973 34.3133 175.773 34.62V41ZM184.98 41.24C183.486 41.24 182.253 40.7733 181.28 39.84C180.306 38.9067 179.82 37.68 179.82 36.16C179.82 34.7333 180.286 33.5333 181.22 32.56C182.166 31.5867 183.366 31.1 184.82 31.1C186.26 31.1 187.426 31.5933 188.32 32.58C189.213 33.5533 189.66 34.8333 189.66 36.42V36.98H182.48C182.56 37.62 182.846 38.1533 183.34 38.58C183.833 39.0067 184.473 39.22 185.26 39.22C185.686 39.22 186.146 39.1333 186.64 38.96C187.146 38.7867 187.546 38.5533 187.84 38.26L188.96 39.9C187.986 40.7933 186.66 41.24 184.98 41.24ZM187.2 35.26C187.16 34.7133 186.94 34.22 186.54 33.78C186.153 33.34 185.58 33.12 184.82 33.12C184.1 33.12 183.54 33.34 183.14 33.78C182.74 34.2067 182.506 34.7 182.44 35.26H187.2ZM202.132 41.24C200.918 41.24 199.925 40.7467 199.152 39.76V44.68H196.612V31.34H199.152V32.56C199.912 31.5867 200.905 31.1 202.132 31.1C203.398 31.1 204.425 31.5533 205.212 32.46C206.012 33.3533 206.412 34.5867 206.412 36.16C206.412 37.7333 206.012 38.9733 205.212 39.88C204.425 40.7867 203.398 41.24 202.132 41.24ZM201.332 38.98C202.065 38.98 202.652 38.72 203.092 38.2C203.545 37.68 203.772 37 203.772 36.16C203.772 35.3333 203.545 34.66 203.092 34.14C202.652 33.62 202.065 33.36 201.332 33.36C200.918 33.36 200.505 33.4667 200.092 33.68C199.678 33.8933 199.365 34.1533 199.152 34.46V37.88C199.365 38.1867 199.678 38.4467 200.092 38.66C200.518 38.8733 200.932 38.98 201.332 38.98ZM210.812 41H208.272V31.34H210.812V32.66C211.172 32.2067 211.632 31.8333 212.192 31.54C212.752 31.2467 213.318 31.1 213.892 31.1V33.58C213.718 33.54 213.485 33.52 213.192 33.52C212.765 33.52 212.312 33.6267 211.832 33.84C211.352 34.0533 211.012 34.3133 210.812 34.62V41ZM223.679 39.78C222.745 40.7533 221.505 41.24 219.959 41.24C218.412 41.24 217.172 40.7533 216.239 39.78C215.319 38.7933 214.859 37.5867 214.859 36.16C214.859 34.7333 215.319 33.5333 216.239 32.56C217.172 31.5867 218.412 31.1 219.959 31.1C221.505 31.1 222.745 31.5867 223.679 32.56C224.612 33.5333 225.079 34.7333 225.079 36.16C225.079 37.5867 224.612 38.7933 223.679 39.78ZM218.159 38.18C218.599 38.7133 219.199 38.98 219.959 38.98C220.719 38.98 221.319 38.7133 221.759 38.18C222.212 37.6333 222.439 36.96 222.439 36.16C222.439 35.3733 222.212 34.7133 221.759 34.18C221.319 33.6333 220.719 33.36 219.959 33.36C219.199 33.36 218.599 33.6333 218.159 34.18C217.719 34.7133 217.499 35.3733 217.499 36.16C217.499 36.96 217.719 37.6333 218.159 38.18ZM230.203 41.24C229.31 41.24 228.63 41.0133 228.163 40.56C227.696 40.1067 227.463 39.4533 227.463 38.6V33.56H225.863V31.34H227.463V28.7H230.023V31.34H231.983V33.56H230.023V37.92C230.023 38.2267 230.103 38.48 230.263 38.68C230.423 38.88 230.636 38.98 230.903 38.98C231.303 38.98 231.596 38.8867 231.783 38.7L232.323 40.62C231.856 41.0333 231.15 41.24 230.203 41.24ZM238.261 41.24C236.768 41.24 235.534 40.7733 234.561 39.84C233.588 38.9067 233.101 37.68 233.101 36.16C233.101 34.7333 233.568 33.5333 234.501 32.56C235.448 31.5867 236.648 31.1 238.101 31.1C239.541 31.1 240.708 31.5933 241.601 32.58C242.494 33.5533 242.941 34.8333 242.941 36.42V36.98H235.761C235.841 37.62 236.128 38.1533 236.621 38.58C237.114 39.0067 237.754 39.22 238.541 39.22C238.968 39.22 239.428 39.1333 239.921 38.96C240.428 38.7867 240.828 38.5533 241.121 38.26L242.241 39.9C241.268 40.7933 239.941 41.24 238.261 41.24ZM240.481 35.26C240.441 34.7133 240.221 34.22 239.821 33.78C239.434 33.34 238.861 33.12 238.101 33.12C237.381 33.12 236.821 33.34 236.421 33.78C236.021 34.2067 235.788 34.7 235.721 35.26H240.481ZM249.276 41.24C247.782 41.24 246.556 40.7667 245.596 39.82C244.636 38.8733 244.156 37.6533 244.156 36.16C244.156 34.68 244.636 33.4667 245.596 32.52C246.556 31.5733 247.782 31.1 249.276 31.1C250.982 31.1 252.256 31.68 253.096 32.84L251.436 34.4C250.969 33.7067 250.289 33.36 249.396 33.36C248.622 33.36 247.989 33.62 247.496 34.14C247.016 34.6467 246.776 35.32 246.776 36.16C246.776 37 247.016 37.68 247.496 38.2C247.989 38.72 248.622 38.98 249.396 38.98C250.262 38.98 250.942 38.6333 251.436 37.94L253.096 39.48C252.256 40.6533 250.982 41.24 249.276 41.24ZM257.996 41.24C257.103 41.24 256.423 41.0133 255.956 40.56C255.489 40.1067 255.256 39.4533 255.256 38.6V33.56H253.656V31.34H255.256V28.7H257.816V31.34H259.776V33.56H257.816V37.92C257.816 38.2267 257.896 38.48 258.056 38.68C258.216 38.88 258.429 38.98 258.696 38.98C259.096 38.98 259.389 38.8867 259.576 38.7L260.116 40.62C259.649 41.0333 258.943 41.24 257.996 41.24ZM266.054 41.24C264.561 41.24 263.327 40.7733 262.354 39.84C261.381 38.9067 260.894 37.68 260.894 36.16C260.894 34.7333 261.361 33.5333 262.294 32.56C263.241 31.5867 264.441 31.1 265.894 31.1C267.334 31.1 268.501 31.5933 269.394 32.58C270.287 33.5533 270.734 34.8333 270.734 36.42V36.98H263.554C263.634 37.62 263.921 38.1533 264.414 38.58C264.907 39.0067 265.547 39.22 266.334 39.22C266.761 39.22 267.221 39.1333 267.714 38.96C268.221 38.7867 268.621 38.5533 268.914 38.26L270.034 39.9C269.061 40.7933 267.734 41.24 266.054 41.24ZM268.274 35.26C268.234 34.7133 268.014 34.22 267.614 33.78C267.227 33.34 266.654 33.12 265.894 33.12C265.174 33.12 264.614 33.34 264.214 33.78C263.814 34.2067 263.581 34.7 263.514 35.26H268.274ZM281.769 41H279.209V39.76C278.422 40.7467 277.429 41.24 276.229 41.24C274.975 41.24 273.949 40.7933 273.149 39.9C272.349 38.9933 271.949 37.7533 271.949 36.18C271.949 34.6333 272.349 33.4 273.149 32.48C273.949 31.56 274.975 31.1 276.229 31.1C277.455 31.1 278.449 31.5933 279.209 32.58V27.66H281.769V41ZM277.009 38.98C277.435 38.98 277.855 38.88 278.269 38.68C278.682 38.4667 278.995 38.2 279.209 37.88V34.46C278.995 34.14 278.682 33.88 278.269 33.68C277.855 33.4667 277.435 33.36 277.009 33.36C276.289 33.36 275.702 33.62 275.249 34.14C274.795 34.66 274.569 35.34 274.569 36.18C274.569 37.0067 274.795 37.68 275.249 38.2C275.702 38.72 276.289 38.98 277.009 38.98Z" fill="white"/>
<path d="M47.9999 29.3333H31.4999V23.8333C31.4999 20.801 33.9676 18.3333 36.9999 18.3333C40.0323 18.3333 42.4999 20.801 42.4999 23.8333H46.1666C46.1666 18.7788 42.0544 14.6667 36.9999 14.6667C31.9454 14.6667 27.8333 18.7788 27.8333 23.8333V29.3333H25.9999C25.0275 29.3333 24.0948 29.7196 23.4072 30.4073C22.7196 31.0949 22.3333 32.0275 22.3333 33V47.6667C22.3333 48.6391 22.7196 49.5717 23.4072 50.2594C24.0948 50.947 25.0275 51.3333 25.9999 51.3333H47.9999C48.9724 51.3333 49.905 50.947 50.5926 50.2594C51.2803 49.5717 51.6666 48.6391 51.6666 47.6667V33C51.6666 32.0275 51.2803 31.0949 50.5926 30.4073C49.905 29.7196 48.9724 29.3333 47.9999 29.3333ZM33.4451 39.4148C33.6704 38.5521 34.2021 37.8009 34.9409 37.3016C35.6796 36.8023 36.5748 36.5889 37.4594 36.7014C38.3439 36.8139 39.1572 37.2446 39.7474 37.913C40.3376 38.5813 40.6644 39.4417 40.6666 40.3333C40.6655 40.9745 40.4955 41.6041 40.1737 42.1587C39.8518 42.7132 39.3895 43.1732 38.8333 43.4922V47.6667H35.1666V43.4922C34.4729 43.0947 33.9288 42.4805 33.6178 41.744C33.3068 41.0074 33.2462 40.1892 33.4451 39.4148V39.4148Z" fill="white"/>
<path d="M36.9999 14.6667C31.9454 14.6667 27.8333 18.7788 27.8333 23.8333V29.3333H25.9999C25.0275 29.3333 24.0948 29.7196 23.4072 30.4073C22.7196 31.0949 22.3333 32.0275 22.3333 33V47.6667C22.3333 48.6391 22.7196 49.5717 23.4072 50.2594C24.0948 50.947 25.0275 51.3333 25.9999 51.3333H47.9999C48.9724 51.3333 49.905 50.947 50.5926 50.2594C51.2803 49.5717 51.6666 48.6391 51.6666 47.6667V33C51.6666 32.0275 51.2803 31.0949 50.5926 30.4073C49.905 29.7196 48.9724 29.3333 47.9999 29.3333H46.1666V23.8333C46.1666 18.7788 42.0544 14.6667 36.9999 14.6667ZM31.4999 23.8333C31.4999 20.801 33.9676 18.3333 36.9999 18.3333C40.0323 18.3333 42.4999 20.801 42.4999 23.8333V29.3333H31.4999V23.8333ZM38.8333 43.4922V47.6667H35.1666V43.4922C34.5256 43.1251 34.011 42.5724 33.6904 41.907C33.3699 41.2415 33.2586 40.4946 33.3712 39.7646C33.4837 39.0346 33.8149 38.3558 34.321 37.8179C34.8271 37.2799 35.4843 36.9079 36.2061 36.751C36.7422 36.6325 37.2981 36.6358 37.8327 36.7607C38.3673 36.8856 38.8671 37.1289 39.2952 37.4727C39.7233 37.8165 40.0688 38.252 40.3061 38.7471C40.5434 39.2422 40.6666 39.7843 40.6666 40.3333C40.6655 40.9745 40.4955 41.6041 40.1737 42.1587C39.8518 42.7132 39.3895 43.1732 38.8333 43.4922V43.4922Z" fill="white"/>
</svg>
