<svg width="40" height="40" viewBox="0 0 40 40" fill="none" xmlns="http://www.w3.org/2000/svg">
<circle cx="20" cy="20" r="20" fill="#2A334F"/>
<mask id="mask0" mask-type="alpha" maskUnits="userSpaceOnUse" x="0" y="0" width="40" height="40">
<circle cx="20" cy="20" r="20" fill="#C4C4C4"/>
</mask>
<g mask="url(#mask0)">
<path d="M13.3614 7.33337H23.8552C24.5962 7.33337 25.2704 7.6342 25.7587 8.11889C26.2462 8.60359 26.55 9.27216 26.55 10.0084V21.8461C27.9063 22.3794 28.5287 23.4657 29.1426 24.538C29.5634 25.2742 29.9808 26.0012 30.6301 26.3859C31.2859 26.7733 31.8622 27.2186 32.2816 27.7674C32.7316 28.3564 32.9899 29.0432 32.9616 29.8703C32.8558 32.9138 33.1092 34.3136 33.5485 36.742C33.6904 37.524 33.8515 38.411 34.0212 39.4642C34.261 40.106 34.0439 40.6914 33.5201 41.2029C33.1439 41.57 32.5868 41.8968 31.9389 42.1681C31.3214 42.4266 30.6188 42.6394 29.9133 42.7916C27.8679 43.2319 25.6756 43.1375 25.0788 42.2104C25.049 42.1631 25.0255 42.1138 25.0085 42.0638C24.961 41.9293 24.8978 41.7637 24.8233 41.5742L24.6189 41.0662C23.8538 40.4378 23.0717 39.7608 22.3648 39.0119C21.6856 38.2919 21.0852 37.5127 20.6509 36.661C19.966 36.5652 19.5984 36.6307 18.9504 36.7455C18.6694 36.7956 18.3464 36.8533 18.0342 36.8998C17.0661 37.0435 16.3528 36.5539 15.9689 35.8579C15.8085 35.5669 15.7091 35.2365 15.6786 34.9047C15.6474 34.5637 15.6864 34.2185 15.8028 33.9078L15.8298 33.8451C15.8546 33.7845 15.8823 33.7254 15.9121 33.6683H13.3614C12.6198 33.6683 11.9462 33.3675 11.458 32.8828C10.9697 32.3988 10.6666 31.7288 10.6666 30.9933V10.0084C10.6666 9.27216 10.9697 8.60359 11.458 8.11889C11.9462 7.6342 12.6198 7.33337 13.3614 7.33337ZM26.55 29.0933L27.8694 30.4029C28.1618 30.6918 28.1632 31.1617 27.8729 31.4519C27.5819 31.7422 27.1078 31.7436 26.8161 31.4547L25.2711 29.9225C24.4805 29.2581 23.643 28.5994 22.7687 27.9456C21.8311 27.2461 20.8354 26.5402 19.7935 25.8293C19.2932 25.4883 18.8567 25.4461 18.5381 25.5799C18.3975 25.6391 18.2733 25.7356 18.1754 25.8561C18.0732 25.9822 18.0008 26.1315 17.9653 26.2901C17.8858 26.6437 17.9859 27.0573 18.3408 27.3982C19.2861 28.3085 20.1143 29.1531 20.8829 30.0401C21.5841 30.8496 22.2357 31.6957 22.8815 32.6601C23.0227 32.7644 23.1214 32.9215 23.1483 33.1054C23.1696 33.1716 23.1824 33.2414 23.1824 33.3153C23.1824 33.3442 23.1803 33.3738 23.1774 33.4027C23.2796 34.4024 23.4514 35.1604 23.7537 35.8149C24.0795 36.5215 24.5742 37.1457 25.3144 37.8629C25.5834 38.1221 25.5891 38.5498 25.3272 38.8175C25.0653 39.0845 24.6345 39.0901 24.3655 38.8309C23.5053 37.9974 22.9212 37.2521 22.5174 36.3757C22.1959 35.6796 21.9979 34.923 21.8737 33.9973L17.6637 34.0283C17.3599 34.0304 17.1761 34.165 17.0938 34.3446L17.0817 34.3791C17.0356 34.5031 17.02 34.6433 17.0328 34.7828C17.0462 34.9329 17.0909 35.0822 17.1626 35.2118C17.2911 35.4436 17.5246 35.6078 17.8376 35.5613C18.2343 35.5028 18.4905 35.4563 18.7105 35.4176C19.6239 35.2548 20.0824 35.1731 21.2371 35.3887C21.4493 35.4288 21.6388 35.5676 21.7332 35.7776C22.1079 36.6138 22.6863 37.381 23.3563 38.0911C24.0327 38.809 24.8148 39.479 25.5812 40.1046C25.6834 40.1772 25.7672 40.2779 25.8176 40.4019L26.0915 41.0817L26.2619 41.5298C26.6103 41.887 28.122 41.7926 29.6252 41.4685C30.2646 41.3311 30.8856 41.1444 31.4115 40.9246C31.9062 40.7175 32.315 40.4836 32.5655 40.2399C32.6968 40.1116 32.7657 39.9996 32.7415 39.92C32.7167 39.8658 32.699 39.808 32.6897 39.7474C32.5123 38.6456 32.3519 37.7593 32.2114 36.9794C31.755 34.4608 31.4924 33.0082 31.6025 29.8281C31.6195 29.3384 31.4662 28.9312 31.1993 28.5818C30.9013 28.1922 30.4541 27.8533 29.9325 27.5448C28.9751 26.9784 28.4698 26.0963 27.9595 25.2044C27.5677 24.5204 27.171 23.8285 26.55 23.3826V29.0933ZM19.8823 18.6237V20.0834H19.032V18.6237H19.8823ZM23.9177 17.1478V18.7688H23.0682V17.1478H23.9177ZM22.5515 21.0704H23.9177V21.9137H22.5515V21.0704ZM19.032 21.0704H21.4748V21.9137H19.032V21.0704ZM19.032 17.1478H21.5188V17.9727H22.5508V18.8167H21.5188V19.4325H23.9177V20.2764H20.6693V17.991H19.032V17.1478ZM15.3997 18.8153H16.7134V20.12H15.3997V18.8153ZM14.0321 17.0357H18.5061V21.8996H13.607V17.0357H14.0321ZM17.6566 17.8797H14.4572V21.0556H17.6566V17.8797ZM20.812 13.5548H22.1257V14.8588H20.812V13.5548ZM19.4444 11.7752H23.9184V16.6384H19.0192V11.7752H19.4444ZM23.0689 12.6185H19.8695V15.7944H23.0689V12.6185ZM15.3997 13.5548H16.7134V14.8588H15.3997V13.5548ZM14.0321 11.7752H18.5061V16.6384H13.607V11.7752H14.0321ZM17.6566 12.6185H14.4572V15.7944H17.6566V12.6185ZM25.1852 28.1006V22.3336V10.0084C25.1852 9.64625 25.0348 9.31513 24.7942 9.07631C24.5529 8.83678 24.22 8.68813 23.8552 8.68813H13.3614C12.9966 8.68813 12.663 8.83678 12.4225 9.07631C12.1812 9.31513 12.0314 9.64625 12.0314 10.0084V30.9933C12.0314 31.3561 12.1812 31.6858 12.4225 31.9254C12.663 32.1642 12.9966 32.3135 13.3614 32.3135H20.9745C20.6104 31.8281 20.2378 31.3674 19.8489 30.9186L19.834 30.901C19.5026 31.1814 19.0746 31.3505 18.6083 31.3505C18.0874 31.3505 17.614 31.1391 17.2712 30.7996C16.9263 30.4593 16.7148 29.9894 16.7148 29.4702C16.7148 28.9756 16.9071 28.5254 17.2222 28.1901C16.6311 27.5187 16.4778 26.7128 16.6382 25.9991C16.7198 25.6335 16.8851 25.2932 17.1151 25.01C17.3493 24.7218 17.6538 24.4865 18.0107 24.3365C18.7254 24.0364 19.6296 24.0793 20.5664 24.7183C21.6104 25.4306 22.6196 26.1463 23.5841 26.8663C24.137 27.2792 24.6714 27.6906 25.1852 28.1006ZM19.2307 30.2282C18.8028 29.7647 18.3507 29.3039 17.8667 28.8277C17.7155 29.0003 17.6247 29.2243 17.6247 29.4702C17.6247 29.74 17.7347 29.9845 17.9121 30.1613C18.0895 30.3381 18.3358 30.4473 18.6083 30.4473C18.8447 30.4473 19.0611 30.3649 19.2307 30.2282Z" fill="white"/>
</g>
</svg>
